<?xml version="1.0" encoding="UTF-8" standalone="no"?>
<!-- Created with Inkscape (http://www.inkscape.org/) -->

<svg
   xmlns:dc="http://purl.org/dc/elements/1.1/"
   xmlns:cc="http://creativecommons.org/ns#"
   xmlns:rdf="http://www.w3.org/1999/02/22-rdf-syntax-ns#"
   xmlns:svg="http://www.w3.org/2000/svg"
   xmlns="http://www.w3.org/2000/svg"
   xmlns:xlink="http://www.w3.org/1999/xlink"
   xmlns:sodipodi="http://sodipodi.sourceforge.net/DTD/sodipodi-0.dtd"
   xmlns:inkscape="http://www.inkscape.org/namespaces/inkscape"
   width="70.833176mm"
   height="75.047997mm"
   viewBox="0 0 70.833176 75.047997"
   version="1.1"
   id="svg3751"
   inkscape:version="0.92.2 (5c3e80d, 2017-08-06)"
   sodipodi:docname="drawing-1.svg">
  <defs
     id="defs3745">
    <style
       id="style3776"
       type="text/css"><![CDATA[
    .fil0 {fill:#c9bfcd}
   ]]></style>
    <clipPath
       clipPathUnits="userSpaceOnUse"
       id="clipPath3823">
      <use
         x="0"
         y="0"
         xlink:href="#g3819"
         id="use3825"
         width="100%"
         height="100%" />
    </clipPath>
  </defs>
  <sodipodi:namedview
     id="base"
     pagecolor="#ffffff"
     bordercolor="#666666"
     borderopacity="1.0"
     inkscape:pageopacity="0.0"
     inkscape:pageshadow="2"
     inkscape:zoom="0.35"
     inkscape:cx="708.14368"
     inkscape:cy="-61.034152"
     inkscape:document-units="mm"
     inkscape:current-layer="layer1"
     showgrid="false"
     inkscape:window-width="1920"
     inkscape:window-height="1017"
     inkscape:window-x="2552"
     inkscape:window-y="248"
     inkscape:window-maximized="1" />
  <metadata
     id="metadata3748">
    <rdf:RDF>
      <cc:Work
         rdf:about="">
        <dc:format>image/svg+xml</dc:format>
        <dc:type
           rdf:resource="http://purl.org/dc/dcmitype/StillImage" />
        <dc:title></dc:title>
      </cc:Work>
    </rdf:RDF>
  </metadata>
  <g
     inkscape:label="Layer 1"
     inkscape:groupmode="layer"
     id="layer1"
     transform="translate(217.60111,-57.636714)">
    <g
       id="g3838">
      <g
         clip-path="url(#clipPath3823)"
         id="g3821">
        <g
           id="g3819"
           inkscape:label="Clip">
          <g
             style="clip-rule:evenodd;fill-rule:evenodd;image-rendering:optimizeQuality;shape-rendering:geometricPrecision;text-rendering:geometricPrecision"
             id="g3808"
             transform="matrix(0.01,0,0,0.01,-219.17081,55.207314)">
            <g
               id="Слой_x0020_1">
              <metadata
                 id="CorelCorpID_0Corel-Layer" />
              <path
                 id="path3781"
                 d="m 156.97,242.94 h 6217.69 v 1985.15 c -10.5,-2 -21.31,-3.04 -32.31,-3.04 -65.09,0 -123.4,36.26 -152.21,94.61 l -184.54,373.92 -412.63,59.96 c -64.41,9.36 -116.91,53.61 -137.03,115.51 -20.12,61.89 -3.67,128.57 42.95,174.02 l 298.6,291.07 -70.49,410.95 c -11,64.16 14.85,127.76 67.51,166.03 52.65,38.26 121.11,43.21 178.75,12.93 l 369.08,-194.03 32.32,16.99 v 1906.06 l -666.67,0.01 c -20.54,0 -40.6,2.06 -60,5.97 l 169.77,-855.51 c 24.89,-125.46 27.72,-248.79 8.4,-366.57 -32.13,-195.8 -135.55,-429.19 -445.85,-429.19 -44.25,0 -82.05,31.91 -89.46,75.54 l -59.56,350.44 c -23.53,138.45 -55.82,270.33 -95.94,391.98 -111.1,336.88 -251.29,509.55 -500,615.93 -119.5,51.1 -216.53,94.81 -255.32,112.43 l -374.33,-0.01 v -72.54 c 0,-50.14 -40.62,-90.75 -90.75,-90.75 h -614.31 v -97.91 c 0,-50.13 -40.61,-90.74 -90.74,-90.74 H 1684.43 c -50.13,0 -90.74,40.61 -90.74,90.74 v 538.49 c 0,50.13 40.63,90.75 90.74,90.75 50.14,0 90.75,-40.63 90.75,-90.75 v -447.74 h 1343.98 v 97.91 979.07 H 1775.2 v -326.74 c 0,-50.14 -40.62,-90.75 -90.75,-90.75 -50.13,0 -90.75,40.62 -90.75,90.75 v 326.74 H 156.97 Z m 6217.69,5591.67 v 296 l -666.67,-0.01 c -67.58,0 -122.57,-54.97 -122.57,-122.56 v -48.78 c 5.93,-22.03 11.09,-42.7 15.54,-61.65 20.97,-37.54 61.06,-63 107.03,-63 z m 0,477.46 v 148.55 h -789.25 v -25.98 c 0,-67.58 54.97,-122.57 122.56,-122.57 z m -970.73,148.55 h -45.22 c 16.93,-23.59 33.3,-48.34 49.09,-74.25 -2.5,15.73 -3.87,31.86 -3.87,48.3 z m -283.79,0 H 4005.71 v -725.01 h 394.05 c 13.09,0 26.03,-2.83 37.92,-8.3 1.14,-0.52 116.34,-53.44 269.05,-118.76 298.99,-127.86 473.1,-338.18 601.01,-725.97 42.95,-130.26 77.42,-271.02 102.48,-418.4 l 45.38,-266.96 c 106.48,24.83 165.19,109.25 191.43,269.16 15.79,96.24 13.34,197.81 -7.32,301.85 l -193.48,974.98 c -0.36,1.81 -0.68,3.66 -0.92,5.5 -0.22,1.7 -5.12,35.78 -17.13,89.48 -12.1,28.35 -19.96,58.9 -22.91,90.87 -43.74,156.16 -129.36,380.12 -285.13,531.56 z m -1295.92,0 h -523.57 v -888.31 h 523.57 v 72.54 z M 6374.66,2486.83 v 1063.22 c -10.67,-2.07 -21.5,-3.1 -32.32,-3.1 -27.13,0 -54.25,6.5 -78.99,19.49 l -353.45,185.82 67.5,-393.57 c 9.45,-55.09 -8.79,-111.23 -48.82,-150.24 l -285.94,-278.73 395.15,-57.43 c 55.28,-8.02 103.08,-42.72 127.82,-92.86 l 176.74,-358.07 z M 5323.28,2203.54 c -20.12,-61.89 -72.63,-106.14 -137.02,-115.5 l -412.65,-59.96 -184.53,-373.91 c -28.8,-58.36 -87.12,-94.61 -152.21,-94.61 -65.09,0 -123.4,36.25 -152.21,94.61 l -184.54,373.92 -412.63,59.97 c -64.41,9.34 -116.91,53.59 -137.04,115.49 -20.12,61.89 -3.67,128.57 42.95,174.04 l 298.61,291.06 -70.49,410.95 c -11.01,64.15 14.87,127.76 67.5,166.03 52.66,38.26 121.13,43.2 178.77,12.93 l 369.06,-194.03 369.08,194.03 c 25.05,13.18 52.16,19.68 79.14,19.68 35.05,0 69.86,-10.99 99.63,-32.6 52.65,-38.26 78.52,-101.87 67.5,-166.02 l -70.49,-410.96 298.63,-291.07 c 46.61,-45.47 63.05,-112.15 42.94,-174.05 z m -472.65,339.43 c -40,38.98 -58.25,95.13 -48.84,150.24 l 67.51,393.57 -353.47,-185.82 c -49.44,-26 -108.51,-26 -157.96,0 l -353.46,185.82 67.51,-393.57 c 9.45,-55.08 -8.81,-111.24 -48.81,-150.24 l -285.96,-278.73 395.18,-57.43 c 55.29,-8.02 103.08,-42.72 127.82,-92.86 l 176.72,-358.09 176.72,358.1 c 24.74,50.12 72.53,84.83 127.81,92.85 l 395.18,57.43 z m -1436.35,326.06 c -20.12,-61.88 -72.62,-106.13 -137.02,-115.49 l -412.64,-59.97 -184.54,-373.92 c -28.81,-58.36 -87.14,-94.61 -152.23,-94.61 -65.07,0 -123.39,36.25 -152.21,94.61 l -184.5,373.92 -412.63,59.97 c -64.41,9.34 -116.92,53.6 -137.04,115.49 -20.12,61.89 -3.67,128.57 42.95,174.04 l 298.6,291.05 -70.49,410.96 c -11,64.15 14.88,127.76 67.51,166.03 29.76,21.62 64.57,32.59 99.63,32.59 26.97,0 54.08,-6.51 79.15,-19.68 l 369.06,-194.03 369.08,194.03 c 57.61,30.29 126.09,25.34 178.74,-12.91 52.65,-38.25 78.53,-101.88 67.53,-166.03 l -70.49,-410.96 298.59,-291.07 c 46.62,-45.44 63.07,-112.12 42.95,-174.02 z m -472.67,339.42 c -40.01,39.01 -58.27,95.16 -48.82,150.24 l 67.5,393.57 -353.45,-185.8 c -49.47,-26.02 -108.53,-26.02 -157.99,-0.02 l -353.45,185.82 67.49,-393.57 c 9.45,-55.05 -8.79,-111.21 -48.8,-150.24 l -285.96,-278.73 395.2,-57.43 c 55.29,-8.02 103.08,-42.72 127.82,-92.86 l 176.71,-358.1 176.71,358.08 c 24.72,50.14 72.51,84.86 127.81,92.88 l 395.17,57.43 z"
                 class="fil0"
                 inkscape:connector-curvature="0"
                 style="fill:#c9bfcd" />
              <g
                 id="_1269117602848">
                <g
                   id="g3785">
                  <circle
                     id="circle3783"
                     r="144.49001"
                     cy="7144.0601"
                     cx="2728.1001"
                     class="fil0"
                     style="fill:#c9bfcd" />
                </g>
              </g>
              <path
                 id="path3788"
                 d="m 6914.28,6172.04 c 29.24,-46.69 46.21,-101.82 46.21,-160.86 v -50.88 c 0,-167.67 -136.4,-304.06 -304.06,-304.06 h -281.77 v 181.54 h 281.77 v -0.02 c 67.58,0 122.57,54.98 122.57,122.57 v 50.88 c 0,67.58 -54.98,122.57 -122.57,122.57 h -281.77 v 181.46 h 281.76 110.35 c 67.58,0 122.57,54.98 122.57,122.57 v 50.88 c 0.01,67.58 -54.97,122.57 -122.55,122.57 l -135.8,-0.01 h -894.48 -25.44 c -67.58,0 -122.57,-54.98 -122.57,-122.56 v -28.07 h -181.48 v 28.1 c 0,86.83 36.64,165.21 95.2,220.67 -58.82,59.54 -95.2,141.29 -95.2,231.39 0,93.9 39.53,178.68 102.76,238.74 -63.24,60.08 -102.77,144.85 -102.77,238.76 0,52.46 12.39,102.08 34.31,146.16 h -295.07 c -169.18,-0.03 -334.78,-58.66 -466.3,-165.13 l -220,-178.09 c -16.15,-13.08 -36.31,-20.22 -57.1,-20.22 l -394.05,-0.01 v -260.23 c 0,-50.13 -40.62,-90.74 -90.75,-90.74 -50.13,0 -90.75,40.62 -90.75,90.74 v 350.99 42.54 H 3303.74 V 6460.62 H 3122.25 V 7522.94 H 1778.29 V 6460.62 h -181.5 v 1153.07 c 0,50.13 40.63,90.74 90.75,90.74 h 1525.47 c 50.13,0 90.74,-40.61 90.74,-90.74 v -97.91 h 614.31 c 50.14,0 90.75,-40.61 90.75,-90.75 v -42.53 h 361.92 l 195.01,157.87 c 163.71,132.54 369.87,205.53 580.52,205.53 h 552.87 c 0.64,0 1.26,-0.08 1.88,-0.09 11.67,1.24 23.49,1.93 35.48,1.93 h 648.26 c 181.7,0 329.51,-147.81 329.51,-329.5 0,-54.52 -13.4,-105.96 -36.95,-151.32 159.82,-22.6 283.16,-160.22 283.16,-326.18 0,-67.12 -20.23,-129.6 -54.81,-181.72 97.98,-50.54 165.16,-152.72 165.16,-270.35 v -50.87 c 0.02,-114.15 -63.24,-213.76 -156.54,-265.76 z M 3827.3,6460.62 v 177.65 0.01 c 0,50.13 40.63,90.74 90.75,90.74 50.13,0 90.75,-40.61 90.75,-90.74 v -0.01 -177.65 z m 1299.12,0 c -100.67,99.14 -230.91,168.05 -398.53,168.05 -50.12,0 -90.75,40.61 -90.75,90.75 0,50.13 40.63,90.74 90.75,90.74 255.66,0 472.59,-120.1 636.16,-349.54 z m 1258.35,1105.63 h -648.25 c -81.6,0 -147.99,-66.39 -147.99,-147.99 0,-81.61 66.39,-148.01 147.99,-148.01 h 648.25 c 81.6,0 148.01,66.39 148.01,148 -0.01,81.61 -66.41,148 -148.01,148 z M 6631,7088.76 h -246.21 -648.26 c -81.6,0 -147.99,-66.4 -147.99,-148 0,-81.6 66.39,-147.99 147.99,-147.99 h 894.49 c 81.6,0 147.99,66.39 147.99,147.99 -0.01,81.59 -66.4,148 -148.01,148 z"
                 class="fil0"
                 inkscape:connector-curvature="0"
                 style="fill:#c9bfcd" />
              <path
                 id="path3790"
                 d="m 7231.85,2872.21 c -20.13,-61.88 -72.63,-106.13 -137.03,-115.49 l -412.64,-59.97 -184.53,-373.92 c -24.42,-49.46 -70.02,-83.04 -122.99,-92.13 v 253.03 l 147.5,298.9 c 24.74,50.12 72.53,84.81 127.81,92.85 l 395.18,57.43 -285.98,278.73 c -39.98,39 -58.24,95.13 -48.8,150.22 l 67.51,393.57 -353.47,-185.82 c -15.81,-8.31 -32.6,-13.96 -49.75,-16.96 v 195.91 l 339.84,178.66 c 25.05,13.18 52.16,19.67 79.15,19.67 35.05,0 69.87,-10.98 99.62,-32.59 52.65,-38.26 78.52,-101.87 67.51,-166.02 l -70.49,-410.96 298.62,-291.06 c 46.59,-45.48 63.06,-112.16 42.94,-174.05 z"
                 class="fil0"
                 inkscape:connector-curvature="0"
                 style="fill:#c9bfcd" />
            </g>
          </g>
        </g>
      </g>
    </g>
  </g>
</svg>
