<?xml version="1.0" encoding="UTF-8" standalone="no"?>
<!-- Created with Inkscape (http://www.inkscape.org/) -->

<svg
   xmlns:dc="http://purl.org/dc/elements/1.1/"
   xmlns:cc="http://creativecommons.org/ns#"
   xmlns:rdf="http://www.w3.org/1999/02/22-rdf-syntax-ns#"
   xmlns:svg="http://www.w3.org/2000/svg"
   xmlns="http://www.w3.org/2000/svg"
   xmlns:sodipodi="http://sodipodi.sourceforge.net/DTD/sodipodi-0.dtd"
   xmlns:inkscape="http://www.inkscape.org/namespaces/inkscape"
   width="72.543037mm"
   height="74.719406mm"
   viewBox="0 0 72.543037 74.719406"
   version="1.1"
   id="svg3846"
   inkscape:version="0.92.2 (5c3e80d, 2017-08-06)"
   sodipodi:docname="paint--color.svg">
  <defs
     id="defs3840">
    <style
       id="style3848"
       type="text/css"><![CDATA[
    .str0 {stroke:#c9bfcd;stroke-width:200;stroke-miterlimit:22.9256}
    .str1 {stroke:#c9bfcd;stroke-width:20;stroke-miterlimit:22.9256}
    .fil1 {fill:none}
    .fil0 {fill:#c9bfcd}
   ]]></style>
  </defs>
  <sodipodi:namedview
     id="base"
     pagecolor="#ffffff"
     bordercolor="#666666"
     borderopacity="1.0"
     inkscape:pageopacity="0.0"
     inkscape:pageshadow="2"
     inkscape:zoom="0.35"
     inkscape:cx="708.51778"
     inkscape:cy="49.773463"
     inkscape:document-units="mm"
     inkscape:current-layer="layer1"
     showgrid="false"
     inkscape:window-width="1920"
     inkscape:window-height="1017"
     inkscape:window-x="2552"
     inkscape:window-y="248"
     inkscape:window-maximized="1" />
  <metadata
     id="metadata3843">
    <rdf:RDF>
      <cc:Work
         rdf:about="">
        <dc:format>image/svg+xml</dc:format>
        <dc:type
           rdf:resource="http://purl.org/dc/dcmitype/StillImage" />
        <dc:title></dc:title>
      </cc:Work>
    </rdf:RDF>
  </metadata>
  <g
     inkscape:label="Layer 1"
     inkscape:groupmode="layer"
     id="layer1"
     transform="translate(217.70009,-87.283153)">
    <g
       style="clip-rule:evenodd;fill-rule:evenodd;image-rendering:optimizeQuality;shape-rendering:geometricPrecision;text-rendering:geometricPrecision"
       id="g3899"
       transform="matrix(0.01,0,0,0.01,-217.71679,87.135853)">
      <g
         id="Слой_x0020_1">
        <metadata
           id="CorelCorpID_0Corel-Layer" />
        <path
           id="path3853"
           d="M 1.67,14.73 H 6196.83 V 2600.66 L 4889.91,4126.07 v -388.06 c 0,0 -85.22,-1198.27 -446.82,-1167.41 -361.6,30.86 -465.99,1185.05 -465.99,1185.05 v 1137.71 l -255.77,4.41 8.81,-2279.83 379.24,-745.25 -820.21,-1331.74 -806.98,1300.87 330.73,789.34 4.41,2015.25 -405.7,4.41 c 0,0 -22.05,-339.54 -4.41,-992.19 406.71,-568.89 74.97,-1023.06 -13.23,-1142.12 -88.2,-119.06 -582.08,-449.79 -582.08,-449.79 0,0 -361.6,445.38 -476.25,767.29 -114.65,321.91 141.12,829.03 141.12,829.03 l 0.01,987.82 -555.68,2.18 -6.6,1547.32 h 200.64 l 13.26,-1346.68 H 3161.3 l 291.04,242.53 h 1287.64 l 308.68,-238.12 1148.17,-13.1 V 6209.88 H 1.67 Z m 6195.16,2877.09 v 1754.6 h -58.96 c -0.87,0 -6.94,-334.65 -5.63,-573.85 4.67,-200.17 -47.87,-282.58 -216.17,-128.25 -142.42,162.7 -585.18,710.92 -585.18,710.92 h -370.42 l -66.15,52.92 v -282.23 z m -2900.46,-959.2 c 40.18,0 72.76,32.58 72.76,72.76 0,40.18 -32.58,72.76 -72.76,72.76 -40.18,0 -72.76,-32.58 -72.76,-72.76 0,-40.18 32.58,-72.76 72.76,-72.76 z m -331.43,533.31 -253.56,-608.54 575.48,-930.46 588.7,961.33 -293.25,579.88 -185.21,-2.21 -2.21,-200.64 c 0,0 185.49,-34.21 183.06,-269 -3.78,-364.61 -542.61,-371.73 -558.55,6.49 -9.19,218.15 177.06,258.1 177.06,258.1 l 2.2,211.67 z m 2630.44,2182.27 337.44,-3.84 2.11,-423.91 z m -1254.57,-1618.37 194.03,-2.21 -90.4,-242.54 z m -147.73,635 471.84,-4.41 -77.17,-432.15 -304.27,6.61 z m -19.84,202.82 h 518.15 V 4897.32 H 4173.24 Z M 3018.4,3118.39 h 489.48 v 1530.18 l 7.74,238.23 -284.43,-238.23 H 3018.4 Z m 0,-447.59 h 518.14 v 251.36 H 3018.4 Z M 1671.27,4156.88 h 526.96 v 496.09 h -526.96 z m -2.21,-423.34 h 526.97 v 218.28 h -526.97 z m -76,-987.12 c -85.52,306.07 -147.98,421.81 46.3,787.15 l 600.82,-1.93 c 0,0 133.4,-207.56 122.38,-260.46 -33.57,-161.08 -239.3,-215.8 -428.11,-255.08 -289.05,-60.14 -343.81,-286.58 -341.39,-269.68 z m 254.65,-406.8 -137.81,187.42 c 0,0 34.18,249.15 281.13,285.53 246.95,36.38 377.04,116.88 394.67,153.24 9.48,19.57 -35.67,-185.17 -183.2,-357.02 -126.55,-147.4 -354.79,-269.17 -354.79,-269.17 z"
           class="fil0"
           inkscape:connector-curvature="0"
           style="fill:#c9bfcd" />
        <polyline
           id="polyline3855"
           points="6196.83,2743.72 6698.44,2139.13 6716.08,4732.06 "
           class="fil1 str0"
           style="fill:none;stroke:#c9bfcd;stroke-width:200;stroke-miterlimit:22.92560005" />
        <polyline
           id="polyline3857"
           points="6196.83,4763.52 7152.67,4765.07 7147.16,7375.67 1005.5,7375.67 998.83,6209.88 "
           class="fil1 str0"
           style="fill:none;stroke:#c9bfcd;stroke-width:200;stroke-miterlimit:22.92560005" />
        <line
           id="line3859"
           y2="2932.9199"
           x2="6673.8501"
           y1="2935.0701"
           x1="6357.6099"
           class="fil1 str0"
           style="fill:none;stroke:#c9bfcd;stroke-width:200;stroke-miterlimit:22.92560005" />
        <line
           id="line3861"
           y2="3391.6101"
           x2="6675.7798"
           y1="3393.76"
           x1="6359.54"
           class="fil1 str0"
           style="fill:none;stroke:#c9bfcd;stroke-width:200;stroke-miterlimit:22.92560005" />
        <line
           id="line3863"
           y2="3841.8401"
           x2="6675.8398"
           y1="3843.99"
           x1="6359.6001"
           class="fil1 str0"
           style="fill:none;stroke:#c9bfcd;stroke-width:200;stroke-miterlimit:22.92560005" />
        <line
           id="line3865"
           y2="4318.0898"
           x2="6684.6602"
           y1="4320.2402"
           x1="6368.4199"
           class="fil1 str0"
           style="fill:none;stroke:#c9bfcd;stroke-width:200;stroke-miterlimit:22.92560005" />
        <polygon
           id="polygon3867"
           points="7040.9,7284.86 7060.75,4870.53 6196.83,4870.53 6196.83,4655.94 6601.05,4653.96 6600.21,4422.42 6361.28,4423.02 6362.51,4219.01 6601.69,4219.01 6601.45,3942.87 6362.21,3944.44 6361.42,3745.29 6600.62,3742.81 6600.65,3493.07 6361.7,3493.07 6362.11,3294.61 6601.06,3292.98 6602.74,3036.67 6361.31,3036.67 6361.31,2836.17 6599.44,2833.27 6600.27,2414.09 6188.87,2897.02 6196.83,2597.63 6789.54,1870.72 6816,4665.4 7239.34,4662.09 7245.95,7476.65 909.18,7463.45 902.88,6209.88 1103.52,6209.88 1107.62,7271.63 "
           class="fil1 str1"
           style="fill:none;stroke:#c9bfcd;stroke-width:20;stroke-miterlimit:22.92560005" />
        <polygon
           id="polygon3869"
           points="1778.16,7029.7 1778.16,6818.16 1576.41,6818.16 1576.44,6368.43 1384.48,6370.29 1384.64,7026.92 "
           class="fil0"
           style="fill:#c9bfcd" />
        <polygon
           id="polygon3871"
           points="2039.65,6828.69 2039.65,7028.24 2239.2,7028.24 2239.2,6828.69 "
           class="fil0"
           style="fill:#c9bfcd" />
        <polygon
           id="polygon3873"
           points="2508.18,6829.79 2508.18,7029.34 2707.73,7029.34 2707.73,6829.79 "
           class="fil0"
           style="fill:#c9bfcd" />
        <polygon
           id="polygon3875"
           points="2960.18,6829.79 2960.18,7029.34 3159.73,7029.34 3159.73,6829.79 "
           class="fil0"
           style="fill:#c9bfcd" />
      </g>
    </g>
  </g>
</svg>
