<?xml version="1.0" encoding="UTF-8" standalone="no"?>
<!-- Created with Inkscape (http://www.inkscape.org/) -->

<svg
   xmlns:dc="http://purl.org/dc/elements/1.1/"
   xmlns:cc="http://creativecommons.org/ns#"
   xmlns:rdf="http://www.w3.org/1999/02/22-rdf-syntax-ns#"
   xmlns:svg="http://www.w3.org/2000/svg"
   xmlns="http://www.w3.org/2000/svg"
   xmlns:sodipodi="http://sodipodi.sourceforge.net/DTD/sodipodi-0.dtd"
   xmlns:inkscape="http://www.inkscape.org/namespaces/inkscape"
   width="79.949501mm"
   height="74.810699mm"
   viewBox="0 0 79.949501 74.810699"
   version="1.1"
   id="svg3846"
   sodipodi:docname="project--color.svg"
   inkscape:version="0.92.2 (5c3e80d, 2017-08-06)">
  <defs
     id="defs3840">
    <style
       id="style3901"
       type="text/css"><![CDATA[
    .fil0 {fill:#4C2B5B}
   ]]></style>
  </defs>
  <sodipodi:namedview
     id="base"
     pagecolor="#ffffff"
     bordercolor="#666666"
     borderopacity="1.0"
     inkscape:pageopacity="0.0"
     inkscape:pageshadow="2"
     inkscape:zoom="0.35"
     inkscape:cx="765.31773"
     inkscape:cy="-140.28056"
     inkscape:document-units="mm"
     inkscape:current-layer="layer1"
     showgrid="false"
     inkscape:window-width="1920"
     inkscape:window-height="1017"
     inkscape:window-x="2552"
     inkscape:window-y="248"
     inkscape:window-maximized="1" />
  <metadata
     id="metadata3843">
    <rdf:RDF>
      <cc:Work
         rdf:about="">
        <dc:format>image/svg+xml</dc:format>
        <dc:type
           rdf:resource="http://purl.org/dc/dcmitype/StillImage" />
        <dc:title></dc:title>
      </cc:Work>
    </rdf:RDF>
  </metadata>
  <g
     inkscape:label="Layer 1"
     inkscape:groupmode="layer"
     id="layer1"
     transform="translate(15.028321,-81.189888)">
    <g
       style="clip-rule:evenodd;fill-rule:evenodd;image-rendering:optimizeQuality;shape-rendering:geometricPrecision;text-rendering:geometricPrecision"
       id="g3933"
       transform="matrix(0.01,0,0,0.01,-14.916621,81.231988)">
      <g
         id="Слой_x0020_1">
        <metadata
           id="CorelCorpID_0Corel-Layer" />
        <path
           id="path3906"
           d="M -11.17,-4.21 H 6177.62 V 2113.22 H 4329.3 c -53.75,0 -97.36,43.61 -97.36,97.36 0,53.79 43.61,97.35 97.36,97.35 H 6177.62 V 5989.88 H 1532.95 V 2409.35 c 0,-55.93 45.47,-101.42 101.36,-101.42 h 1433.82 c 53.74,0 97.35,-43.55 97.35,-97.35 0,-53.75 -43.61,-97.35 -97.35,-97.35 l -1433.82,-0.01 c -163.28,0 -296.08,132.86 -296.08,296.12 V 6184.58 H -11.17 Z m 3503.26,2312.14 h 413.25 c 53.75,0 97.35,-43.55 97.35,-97.35 0,-53.75 -43.6,-97.35 -97.35,-97.35 l -413.25,-0.01 c -53.76,0 -97.37,43.61 -97.37,97.36 0,53.79 43.61,97.35 97.37,97.35 z m -1551.87,540.64 c -53.75,0 -97.36,43.56 -97.36,97.35 v 2583.75 c 0,53.74 43.61,97.35 97.36,97.35 h 758.15 c 53.76,0 97.37,-43.6 97.37,-97.35 V 2945.93 c 0,-53.8 -43.61,-97.36 -97.37,-97.36 z m 660.8,194.71 v 117.54 H 2037.57 V 3043.28 Z M 2037.57,5432.31 V 3355.53 h 563.45 V 5432.31 Z M 3241.39,4717.5 c 0,156.53 127.43,283.91 283.96,283.91 71.29,0 136.45,-26.42 186.35,-69.98 l 669.12,370.72 c -2.23,14.35 -3.45,29.1 -3.45,44.06 0,156.58 127.37,283.95 283.96,283.95 156.52,0 283.9,-127.37 283.9,-283.95 0,-14.96 -1.17,-29.71 -3.39,-44.06 l 669.07,-370.72 c 49.9,43.51 115.09,69.98 186.35,69.98 156.57,0 283.95,-127.38 283.95,-283.96 0,-122.35 -77.84,-226.91 -186.6,-266.71 v -603.06 c 108.76,-39.85 186.6,-144.36 186.6,-266.76 0,-156.59 -127.38,-283.96 -283.95,-283.96 -71.1,0 -136.1,26.32 -185.95,69.62 l -669.53,-370.92 c 2.28,-14.35 3.45,-29.05 3.45,-44.06 0,-156.58 -127.38,-283.95 -283.95,-283.95 -156.54,0 -283.91,127.37 -283.91,283.95 0,14.96 1.17,29.71 3.45,44.06 l -669.53,370.92 c -49.84,-43.3 -114.85,-69.62 -185.94,-69.62 -156.58,0 -283.96,127.37 -283.96,283.96 0,122.35 77.83,226.91 186.6,266.71 v 603.11 c -108.77,39.8 -186.6,144.36 -186.6,266.76 z M 4661.32,3235.56 c 71.09,0 136.1,-26.32 185.94,-69.67 l 669.54,370.97 c -2.23,14.34 -3.46,29.05 -3.46,44.06 0,15.01 1.23,29.77 3.46,44.12 l -669.54,370.91 c -49.84,-43.3 -114.85,-69.62 -185.94,-69.62 -71.09,0 -136.09,26.32 -185.94,69.62 l -669.53,-370.91 c 2.28,-14.35 3.45,-29.11 3.45,-44.12 0,-15.01 -1.22,-29.72 -3.45,-44.06 l 669.53,-370.92 c 49.84,43.3 114.85,69.62 185.94,69.62 z m 852.02,1481.94 c 0,14.81 1.17,29.36 3.35,43.56 l -669.42,370.87 c -25.87,-22.52 -55.78,-40.46 -88.59,-52.43 v -602.49 c 108.77,-39.81 186.61,-144.37 186.61,-266.77 0,-15.02 -1.22,-29.71 -3.45,-44.06 l 669.52,-370.92 c 25.87,22.47 55.78,40.41 88.58,52.43 v 603.06 c -108.76,39.8 -186.6,144.36 -186.6,266.76 z m -762.77,-507.26 c 0,49.23 -40.06,89.24 -89.24,89.24 -49.19,0 -89.25,-40.01 -89.25,-89.24 0,-49.19 40.06,-89.2 89.25,-89.2 49.18,0 89.24,40.01 89.24,89.2 z m -1039.28,-414.99 669.53,370.92 c -2.23,14.4 -3.45,29.1 -3.45,44.11 0,122.36 77.83,226.92 186.6,266.73 v 602.49 c -32.8,12.02 -62.72,29.96 -88.59,52.43 l -669.42,-370.87 c 2.18,-14.2 3.35,-28.75 3.35,-43.56 0,-122.4 -77.83,-226.96 -186.6,-266.76 v -603.05 c 32.8,-12.02 62.73,-29.97 88.58,-52.44 z M 3525.35,4806.7 c -49.19,0 -89.25,-40.01 -89.25,-89.2 0,-49.23 40.06,-89.24 89.25,-89.24 49.23,0 89.24,40.01 89.24,89.24 0,49.19 -40.01,89.2 -89.24,89.2 z m 1135.97,628.76 c -49.18,0 -89.24,-40.06 -89.24,-89.25 0,-49.18 40.06,-89.24 89.24,-89.24 49.19,0 89.25,40.06 89.25,89.24 0,49.19 -40.06,89.25 -89.25,89.25 z M 5797.3,4806.7 c -49.18,0 -89.24,-40.01 -89.24,-89.2 0,-49.23 40.06,-89.24 89.24,-89.24 49.19,0 89.24,40.01 89.24,89.24 0,49.19 -40.05,89.2 -89.24,89.2 z m 0,-1315.02 c 49.19,0 89.24,40.06 89.24,89.24 0,49.19 -40.05,89.24 -89.24,89.24 -49.18,0 -89.24,-40.05 -89.24,-89.24 0,-49.18 40.06,-89.24 89.24,-89.24 z M 4661.32,2862.36 c 117.33,0 117.33,178.48 0,178.48 -49.18,0 -89.24,-40.06 -89.24,-89.24 0,-49.18 40.06,-89.24 89.24,-89.24 z m -1135.97,629.32 c 49.23,0 89.24,40.06 89.24,89.24 0,49.19 -40.01,89.24 -89.24,89.24 -49.19,0 -89.25,-40.05 -89.25,-89.24 0,-49.18 40.06,-89.24 89.25,-89.24 z"
           class="fil0"
           inkscape:connector-curvature="0"
           style="fill:#4C2B5B" />
        <g
           id="_1269129162992">
          <path
             id="path3908"
             d="M 7687.65,2103.75 H 6177.62 v 194.72 h 1510.09 c 55.88,0 101.35,45.48 101.35,101.42 v 2964.08 c 0,53.75 43.61,97.36 97.37,97.36 53.79,0 97.35,-43.61 97.35,-97.36 V 2399.89 c 0,-163.28 -132.8,-296.13 -296.13,-296.13 z"
             class="fil0"
             inkscape:connector-curvature="0"
             style="fill:#4C2B5B" />
          <path
             id="path3910"
             d="m 7886.43,5690.57 c -53.81,0 -97.37,43.56 -97.37,97.36 v 192.48 H 6177.62 v 102.8 H 1337.6 v 497.26 c 0,126.77 103.13,229.9 229.89,229.9 h 2359.37 v 471.78 h -401.99 c -53.76,0 -97.37,43.61 -97.37,97.35 0,53.8 43.61,97.36 97.37,97.36 h 2271.64 c 53.8,0 97.35,-43.56 97.35,-97.35 0,-53.75 -43.55,-97.36 -97.35,-97.36 h -401.99 v -471.78 h 2359.35 c 126.77,0 229.91,-103.13 229.91,-229.89 v -792.54 c 0,-53.81 -43.56,-97.37 -97.35,-97.37 z M 5199.8,7282.15 H 4121.58 V 6810.37 H 5199.8 Z M 7753.87,6615.66 H 1567.49 c -19.41,0 -35.19,-15.77 -35.19,-35.19 v -405.35 h 6256.76 v 405.35 c 0,19.42 -15.76,35.19 -35.19,35.19 z"
             class="fil0"
             inkscape:connector-curvature="0"
             style="fill:#4C2B5B" />
          <path
             id="path3912"
             d="m 6707.56,3895.72 h 758.15 c 53.8,0 97.36,-43.56 97.36,-97.35 v -861.91 c 0,-53.8 -43.56,-97.36 -97.36,-97.36 h -758.15 c -53.76,0 -97.37,43.56 -97.37,97.35 v 861.91 c 0,53.8 43.61,97.36 97.37,97.36 z m 97.35,-194.71 v -355 h 563.45 v 355 z m 563.45,-667.2 v 117.54 h -563.45 v -117.54 z"
             class="fil0"
             inkscape:connector-curvature="0"
             style="fill:#4C2B5B" />
          <path
             id="path3914"
             d="m 6610.19,5178.54 c 0,53.8 43.61,97.36 97.37,97.36 h 758.15 c 53.8,0 97.36,-43.55 97.36,-97.36 v -861.9 c 0,-53.8 -43.56,-97.36 -97.36,-97.36 l -758.15,-0.01 c -53.76,0 -97.37,43.56 -97.37,97.37 z m 194.72,-97.36 v -354.99 h 563.45 v 354.99 z m 563.45,-667.19 v 117.49 h -563.45 v -117.49 z"
             class="fil0"
             inkscape:connector-curvature="0"
             style="fill:#4C2B5B" />
        </g>
      </g>
    </g>
  </g>
</svg>
