<?xml version="1.0" encoding="UTF-8" standalone="no"?>
<!-- Created with Inkscape (http://www.inkscape.org/) -->

<svg
   xmlns:dc="http://purl.org/dc/elements/1.1/"
   xmlns:cc="http://creativecommons.org/ns#"
   xmlns:rdf="http://www.w3.org/1999/02/22-rdf-syntax-ns#"
   xmlns:svg="http://www.w3.org/2000/svg"
   xmlns="http://www.w3.org/2000/svg"
   xmlns:sodipodi="http://sodipodi.sourceforge.net/DTD/sodipodi-0.dtd"
   xmlns:inkscape="http://www.inkscape.org/namespaces/inkscape"
   width="77.008301mm"
   height="75.053299mm"
   viewBox="0 0 77.008301 75.053299"
   version="1.1"
   id="svg3846"
   sodipodi:docname="tools--color.svg"
   inkscape:version="0.92.2 (5c3e80d, 2017-08-06)">
  <defs
     id="defs3840">
    <style
       id="style3935"
       type="text/css"><![CDATA[
    .fil0 {fill:#4C2B5B}
   ]]></style>
  </defs>
  <sodipodi:namedview
     id="base"
     pagecolor="#ffffff"
     bordercolor="#666666"
     borderopacity="1.0"
     inkscape:pageopacity="0.0"
     inkscape:pageshadow="2"
     inkscape:zoom="0.35"
     inkscape:cx="639.41665"
     inkscape:cy="184.40959"
     inkscape:document-units="mm"
     inkscape:current-layer="layer1"
     showgrid="false"
     inkscape:window-width="1920"
     inkscape:window-height="1017"
     inkscape:window-x="2552"
     inkscape:window-y="248"
     inkscape:window-maximized="1" />
  <metadata
     id="metadata3843">
    <rdf:RDF>
      <cc:Work
         rdf:about="">
        <dc:format>image/svg+xml</dc:format>
        <dc:type
           rdf:resource="http://purl.org/dc/dcmitype/StillImage" />
        <dc:title></dc:title>
      </cc:Work>
    </rdf:RDF>
  </metadata>
  <g
     inkscape:label="Layer 1"
     inkscape:groupmode="layer"
     id="layer1"
     transform="translate(-33.311326,-126.42573)">
    <g
       style="clip-rule:evenodd;fill-rule:evenodd;image-rendering:optimizeQuality;shape-rendering:geometricPrecision;text-rendering:geometricPrecision"
       id="g3956"
       transform="matrix(0.01,0,0,0.01,32.637626,125.73773)">
      <g
         id="Слой_x0020_1">
        <metadata
           id="CorelCorpID_0Corel-Layer" />
        <path
           id="path3940"
           d="m 67.37,68.8 h 6217.69 v 3430.65 l -901.82,2.61 -6.61,-183 -564.4,-579.87 -3.43,-944.19 c 0,0 -8.13,-120.19 -133.26,-116.32 -125.13,3.87 -130.09,114.65 -130.09,114.65 l 2.2,863.2 -580.99,4.41 -3.28,-857.67 c 0,0 -10.61,-129.4 -131.34,-127.75 -120.73,1.65 -131.11,131.04 -131.11,131.04 l -2.15,935.97 -564.45,567.77 -2.24,192.86 -2372.53,5.52 -9.73,2777.8 H 67.37 Z m 6217.69,3956.12 v 636.23 l -862.21,-884.94 615.16,-2.2 z m 0,978.6 v 53.14 L 5707.26,5050.6 4682,4014.31 l 626.18,-4.41 z m 0,315.08 v 579.88 H 5509.98 V 5318.6 Z m 0,849.92 v 117.96 h -767.38 v -117.96 z m -1032.91,117.96 h -299.38 l -1.06,-141.54 300.97,0.55 z m -557.74,0 h -875.34 v -142.03 h 875.34 z m -1136.17,0 H 3258.5 l -0.13,-136.02 300.97,-3.32 z m -560.73,0 H 1006.5 v -129.01 h 1991.01 z m 251.92,-983.33 h 1980.53 l -4.41,601.93 -275.61,-0.55 V 5735.3 c 0,0 -4.54,-116.14 -126.9,-117.25 -122.36,-1.11 -136.8,115.04 -136.8,115.04 l -1.43,176.96 -296.01,-2.21 -1.1,-198.99 c -0.06,-11.57 -18.75,-93.71 -125.68,-94.81 -106.93,-1.1 -136.57,77.21 -136.77,95.35 l -2.13,193.49 -291.24,2.26 -3.42,-158.79 c 0,0 -0.81,-133.41 -133.09,-132.31 -132.28,1.1 -140.62,134.55 -140.62,134.55 l 1.72,156.5 -304.28,2.2 z m -2242.89,5.45 h 1988.8 v 593.11 h -1988.8 z m 2393.24,-1816.86 1702.16,-6.62 13.23,310.89 -1715.39,-4.41 z m 202.85,-275.61 291.04,-293.25 h 732.02 l 291.04,297.66 z m 98.16,811.42 638.31,-4.41 1034.09,1023.05 h -646.03 z m -1238.08,-255.8 674.69,2.2 2.2,262.38 211.67,-2.2 1005.43,1012.04 -612.96,4.41 z m -985.56,-2.21 h 612.96 l 1274.41,1281.03 -604.13,4.41 z m -469.63,11.03 h 92.61 l 1283.23,1278.82 -608.55,4.41 -771.7,-762.89 z m 8.82,899.58 v 379.24 l 357.19,4.41 z"
           class="fil0"
           inkscape:connector-curvature="0"
           style="fill:#4C2B5B" />
        <path
           id="path3942"
           d="m 748.95,6286.48 -4.5,1285.44 7023.75,2.21 V 7455.07 5135.55 l -1362.77,-1364.81 610.75,-2.21 532.43,530.32 c 11.74,11.69 112.41,67.4 182.02,3.46 21.86,-20.07 33.04,-43.23 37.57,-66.09 v -53.65 c -4.97,-27.48 -16.17,-49.23 -23.34,-56.61 l -353.85,-364.04 280.02,2.2 c 0,0 89.08,-17.92 97.17,-119.45 v -29.59 c -8.38,-103.66 -105.99,-119.95 -105.99,-119.95 l -1377.15,3.99 v 526.36 l 1022.09,1038.06 h -630.59 l -391.5,-401.82 v 342.36 l 51.92,52.81 -51.92,-0.54 v 261.93 h 1221.66 v 579.88 H 6285.06 V 6168.2 H 7496.78 V 7322.48 H 5516.81 v -1036 h -265.53 l -3.88,1031.13 -1988.79,4.41 -0.98,-1035.54 H 2996.64 V 7312.5 H 1005.63 V 6286.48 Z m 3944.59,0 v 469.5 H 3818.2 v -469.5 h -260.83 c -1.43,179.91 -3.82,479.05 -4.58,559.23 -1.11,116.86 69.62,163.22 104.9,163.22 35.28,0 1040.7,4.42 1164.17,6.62 123.47,2.2 134.49,-132.3 134.49,-132.3 l -4.45,-596.77 z"
           class="fil0"
           inkscape:connector-curvature="0"
           style="fill:#4C2B5B" />
      </g>
    </g>
  </g>
</svg>
