<?xml version="1.0" encoding="UTF-8" standalone="no"?>
<!-- Created with Inkscape (http://www.inkscape.org/) -->

<svg xmlns:dc="http://purl.org/dc/elements/1.1/" xmlns:cc="http://creativecommons.org/ns#" xmlns:rdf="http://www.w3.org/1999/02/22-rdf-syntax-ns#" xmlns:svg="http://www.w3.org/2000/svg" xmlns="http://www.w3.org/2000/svg" xmlns:sodipodi="http://sodipodi.sourceforge.net/DTD/sodipodi-0.dtd" xmlns:inkscape="http://www.inkscape.org/namespaces/inkscape" width="77.776703mm" height="74.837502mm" viewBox="0 0 77.776703 74.837502" version="1.1" id="svg3846" sodipodi:docname="worker-color.svg" inkscape:version="0.92.2 (5c3e80d, 2017-08-06)">
  <defs id="defs3840">
    
    
  </defs>
  <sodipodi:namedview id="base" pagecolor="#ffffff" bordercolor="#666666" borderopacity="1.0" inkscape:pageopacity="0.0" inkscape:pageshadow="2" inkscape:zoom="0.35" inkscape:cx="189.25338" inkscape:cy="-62.736628" inkscape:document-units="mm" inkscape:current-layer="layer1" showgrid="false" inkscape:window-width="1920" inkscape:window-height="1017" inkscape:window-x="2552" inkscape:window-y="248" inkscape:window-maximized="1"/>
  <metadata id="metadata3843">
    <rdf:RDF>
      <cc:Work rdf:about="">
        <dc:format>image/svg+xml</dc:format>
        <dc:type rdf:resource="http://purl.org/dc/dcmitype/StillImage"/>
        <dc:title/>
      </cc:Work>
    </rdf:RDF>
  </metadata>
  <g inkscape:label="Layer 1" inkscape:groupmode="layer" id="layer1" transform="translate(-119.1057,-156.77173)">
    <g id="g3982" transform="matrix(0.01,0,0,0.01,119.0156,156.72173)">
      <g id="&#x421;&#x43B;&#x43E;&#x439;_x0020_1">
        <metadata id="CorelCorpID_0Corel-Layer"/>
        <path id="path3963" d="m 9.01,5 h 6189.35 v 2184.46 c -160.1,129.17 -186.61,271.72 -186.61,271.72 l 186.61,939.59 v 2637.29 l -31.14,146.27 h -571.01 c 12.48,-568.86 -46.83,-640.42 -133.91,-816.14 -92.61,-186.87 -304.25,-352.69 -492.76,-405.6 -188.51,-52.91 -580.43,-46.3 -527.51,-52.92 52.92,-6.62 301.79,-349.74 341.47,-693.7 39.68,-343.96 26.05,-1225.36 26.05,-1225.36 l 417.13,-1.7 -4.13,-301.75 -403.49,-3.3 c 0,0 -6.61,-251.35 -171.98,-515.94 -165.37,-264.59 -556.13,-481.43 -556.13,-481.43 l -4.45,-115.54 -1095.57,1.24 -0.8,126.09 c 0,0 -295.07,138.4 -480.27,396.37 -185.2,257.97 -250.62,595.83 -250.62,595.83 l -383.65,-3.31 v 310.06 l 389.22,0.83 c 0,0 1.06,799.54 17.6,1206.33 16.54,406.79 406.79,718.51 406.79,718.51 0,0 -181.88,-20.71 -539.09,27.29 -357.21,48 -658.86,533.56 -660.03,834.26 l -1.55,399.88 H 9.01 Z m 2971.9,3977.42 278.34,-3.13 c 0,0 24.27,284.81 273.97,282.6 249.7,-2.21 267.88,-283.11 267.88,-283.11 l 291.07,-1.32 c -55.2,732.69 -1044.68,724.31 -1111.26,4.96 z m 2265.05,2201.91 h -446.54 l -5.34,-950.22 c 0,0 442.25,88.08 453.52,508.26 1.97,158.14 0.46,295.82 -1.64,441.96 z m -779.31,0 H 2591.42 l -1.66,-952.15 389.85,0.82 c 10.77,387.76 129.19,778.39 577.58,771.32 440.23,-6.94 554.58,-448.17 537.39,-772.29 h 373.73 z m -2207.78,0 H 1812.5 c -2.16,-149.28 -3.77,-289.19 -1.76,-450.35 11.27,-420.18 453.52,-508.26 453.52,-508.26 z m 288.33,-3186.19 1992.66,2.45 c 5.96,507.74 37.63,887.12 -43.74,1247.26 -79.75,352.96 -371.11,588.86 -745.05,657.75 3.3,176.95 -7,565.09 -10.31,604.78 -3.31,39.69 -30.43,179.83 -192.49,179.84 -162.06,0.01 -213.91,-123.17 -213.91,-186 0,-62.83 -3.21,-595.3 -3.21,-595.3 0,0 -613.62,-103.36 -749.22,-645.75 -60.17,-370.73 -34.73,-1265.03 -34.73,-1265.03 z m 26.5,-300.64 1919.05,-3.31 c -32.13,-318.36 -247.08,-532.14 -405.54,-616 l 3.3,228.22 -326.61,0.18 -6.19,-383.03 -448.98,3.42 v 379.61 l -323.28,0.64 -1.24,-229.03 c -221.04,87.99 -373.28,392.94 -410.51,619.3 z" class="fil0" inkscape:connector-curvature="0"/>
        <path id="path3965" d="m 1485.74,7487.89 5.05,-1303.56 h 324.06 c 0.98,68 2.08,138.01 3,212.91 l 442.08,-1.11 1.19,-211.8 h 332.59 l 1.64,938.31 h 1871.93 l 1.64,-938.31 h 332.81 l 1.24,220.19 442.08,1.11 c 0.96,-77.98 2.1,-150.67 3.12,-221.3 h 350.21 c -0.78,34.7 -1.82,71.14 -3.14,109.65 -23.16,674.69 -5.78,1194.77 -5.78,1194.77 z m 3326.53,-768.18 h 443.18 V 7121 h -443.18 z m -2996.43,-2.2 h 443.18 v 401.29 h -443.18 z" class="fil0" inkscape:connector-curvature="0"/>
        <path id="path3967" d="m 6167.22,3227.72 227.13,1143.6 6.62,720.99 -393.61,1848.82 c 0,0 13.23,514.29 863.2,535.78 849.97,21.49 916.12,-545.7 916.12,-545.7 l -386.95,-1858.7 -9.92,-711.07 380.31,-1908.31 c 0,0 -109.18,-463.22 -853.33,-473.15 -399.6,3.24 -624.27,117.67 -749.57,233.56 z m 424.02,1999.6 598.14,-1.04 334.5,1693.89 c -179.49,415.05 -1146.4,307.8 -1257.86,26.21 z m 23.91,-807.78 h 553.72 v 522.73 h -553.72 z m -41.37,-264.7 626.56,3.31 238.2,-1340.71 c 0,0 -185.99,106.16 -546.48,106.15 -360.49,-0.01 -543.1,-109.46 -543.1,-109.46 z m -320.5,-1719.52 c 13.43,27.84 87.3,267.73 631.71,267.73 544.41,0 678.53,-236.85 667.84,-261.53 -67.38,-155.62 -390.15,-251.38 -662.72,-249.64 -265.22,1.7 -560.55,96.93 -636.83,243.44 z" class="fil0" inkscape:connector-curvature="0"/>
      </g>
    </g>
  </g>
</svg>
