<?xml version="1.0" encoding="UTF-8" standalone="no"?>
<!-- Created with Inkscape (http://www.inkscape.org/) -->

<svg
   xmlns:dc="http://purl.org/dc/elements/1.1/"
   xmlns:cc="http://creativecommons.org/ns#"
   xmlns:rdf="http://www.w3.org/1999/02/22-rdf-syntax-ns#"
   xmlns:svg="http://www.w3.org/2000/svg"
   xmlns="http://www.w3.org/2000/svg"
   xmlns:sodipodi="http://sodipodi.sourceforge.net/DTD/sodipodi-0.dtd"
   xmlns:inkscape="http://www.inkscape.org/namespaces/inkscape"
   width="224.0381mm"
   height="73.076302mm"
   viewBox="0 0 224.0381 73.076302"
   version="1.1"
   id="svg8"
   inkscape:version="0.92.2 (5c3e80d, 2017-08-06)"
   sodipodi:docname="logo.svg">
  <defs
     id="defs2">
    <style
       id="style10"
       type="text/css"><![CDATA[
    .str1 {stroke:#5C5278;stroke-width:7.62;stroke-miterlimit:22.9256}
    .str2 {stroke:#54265C;stroke-width:7.62;stroke-miterlimit:22.9256}
    .str0 {stroke:#7E6197;stroke-width:7.62;stroke-miterlimit:22.9256}
    .fil3 {fill:#54265C}
    .fil1 {fill:#7E6197}
    .fil2 {fill:#54265C;fill-rule:nonzero}
    .fil0 {fill:#7E6197;fill-rule:nonzero}
   ]]></style>
  </defs>
  <sodipodi:namedview
     id="base"
     pagecolor="#ffffff"
     bordercolor="#666666"
     borderopacity="1.0"
     inkscape:pageopacity="0.0"
     inkscape:pageshadow="2"
     inkscape:zoom="0.35"
     inkscape:cx="771.95053"
     inkscape:cy="578.09694"
     inkscape:document-units="mm"
     inkscape:current-layer="layer1"
     showgrid="false"
     inkscape:window-width="1920"
     inkscape:window-height="1017"
     inkscape:window-x="2552"
     inkscape:window-y="248"
     inkscape:window-maximized="1" />
  <metadata
     id="metadata5">
    <rdf:RDF>
      <cc:Work
         rdf:about="">
        <dc:format>image/svg+xml</dc:format>
        <dc:type
           rdf:resource="http://purl.org/dc/dcmitype/StillImage" />
        <dc:title></dc:title>
      </cc:Work>
    </rdf:RDF>
  </metadata>
  <g
     inkscape:label="Layer 1"
     inkscape:groupmode="layer"
     id="layer1"
     transform="translate(234.48334,-228.71185)">
    <g
       style="clip-rule:evenodd;fill-rule:evenodd;image-rendering:optimizeQuality;shape-rendering:geometricPrecision;text-rendering:geometricPrecision"
       id="g55"
       transform="matrix(0.01,0,0,0.01,-235.11594,228.21505)">
      <g
         id="Слой_x0020_1">
        <metadata
           id="CorelCorpID_0Corel-Layer" />
        <g
           id="g17">
          <path
             id="path15"
             d="m 11258.05,5828.31 0.14,200 v 0 l -349.95,0.18 -349.94,0.15 -349.95,0.13 -349.94,0.11 -349.94,0.1 -349.94,0.07 -349.93,0.06 -349.94,0.04 -349.92,0.03 -349.92,0.02 h -349.91 l -349.92,-0.01 -349.89,-0.02 -349.89,-0.03 -349.88,-0.04 -349.89,-0.04 -349.86,-0.05 -349.85,-0.05 -349.84,-0.06 -349.83,-0.06 -349.82,-0.06 -349.8,-0.07 -349.8,-0.06 -349.77,-0.06 -349.76,-0.06 -349.75,-0.05 -349.73,-0.05 -349.71,-0.04 -349.69,-0.03 -349.68,-0.03 -349.65,-0.01 -349.64,-0.01 v -200 l 349.64,0.01 349.67,0.01 349.68,0.03 349.69,0.03 349.73,0.04 349.73,0.05 349.75,0.05 349.76,0.06 349.77,0.06 349.8,0.06 349.8,0.07 349.82,0.06 349.83,0.06 349.84,0.06 349.85,0.05 349.86,0.05 349.87,0.04 349.88,0.04 349.89,0.03 349.89,0.02 349.9,0.01 h 349.91 l 349.9,-0.02 349.92,-0.03 349.92,-0.04 349.93,-0.06 349.92,-0.07 349.92,-0.1 349.94,-0.11 349.93,-0.13 349.92,-0.15 z m 11185.02,-3.99 v 200 l -349.35,0.01 -349.4,0.01 -349.45,0.03 -349.49,0.04 -349.54,0.05 -349.58,0.06 -349.6,0.07 -349.64,0.07 -349.67,0.09 -349.67,0.09 -349.7,0.11 -349.72,0.11 -349.72,0.12 -349.71,0.12 -349.72,0.13 -349.72,0.14 -349.7,0.14 -349.7,0.15 -349.66,0.15 -349.65,0.16 -349.63,0.17 -349.59,0.16 -349.56,0.17 -349.52,0.18 -349.47,0.17 -349.42,0.18 -349.37,0.18 -349.32,0.19 -349.25,0.18 -349.19,0.19 -349.12,0.18 -349.05,0.19 -0.14,-200 349.05,-0.19 349.12,-0.18 349.19,-0.19 349.25,-0.18 349.32,-0.19 349.37,-0.18 349.44,-0.18 349.47,-0.17 349.52,-0.18 349.56,-0.17 349.59,-0.16 349.63,-0.17 349.65,-0.16 349.68,-0.15 349.7,-0.15 349.7,-0.14 349.72,-0.14 349.72,-0.13 349.73,-0.12 349.72,-0.12 349.72,-0.11 349.7,-0.11 349.69,-0.09 349.67,-0.09 349.64,-0.07 349.62,-0.07 349.58,-0.06 349.54,-0.05 349.51,-0.04 349.45,-0.03 349.42,-0.01 z"
             class="fil0"
             inkscape:connector-curvature="0"
             style="fill:#7e6197;fill-rule:nonzero" />
        </g>
        <path
           id="path19"
           d="m 467.13,6671.17 c 0,-30.11 0,-65.21 0,-100.32 38.03,0 76.14,0 117.31,0 0,35.11 0,70.21 0,100.32 123.64,5 218.8,35.11 288.52,90.32 69.73,50.2 104.63,120.42 104.63,200.72 0,75.23 -34.9,145.44 -101.49,200.65 -69.73,55.21 -164.81,85.31 -291.66,90.32 0,35.11 0,70.22 0,100.32 -41.17,0 -79.28,0 -117.31,0 0,-30.1 0,-65.21 0,-100.32 -110.97,-5.01 -205.61,-35.92 -278.98,-85.31 -75.63,-50.93 -114.11,-120.43 -114.11,-205.66 0,-85.31 38.04,-155.53 114.11,-205.73 72.93,-55.2 168.01,-80.31 278.98,-85.31 z m 117.31,85.31 c 0,135.43 0,270.95 0,406.38 82.4,-5 145.86,-20.1 193.37,-55.21 47.58,-35.1 69.8,-85.31 69.8,-145.44 0,-60.21 -22.22,-110.41 -69.8,-145.52 -44.37,-35.11 -107.76,-55.2 -193.37,-60.21 z m -117.31,0 c -76.07,5.01 -139.46,25.1 -190.24,60.21 -47.51,35.11 -72.86,80.31 -72.86,145.52 0,60.13 25.35,110.34 72.86,145.44 47.58,35.11 110.97,50.21 190.24,55.21 0,-135.43 0,-270.95 0,-406.38 z m 1299.84,597.02 c 120.51,-255.85 244.16,-516.71 367.8,-777.65 44.37,0 88.74,0 136.32,0 129.99,260.94 259.97,521.8 389.95,777.65 -50.71,0 -98.29,0 -145.79,0 -38.11,-75.22 -76.14,-155.53 -110.97,-235.76 -133.19,0 -266.38,0 -399.49,0 -34.9,80.23 -69.73,160.54 -104.63,235.76 -44.37,0 -88.75,0 -133.19,0 z m 272.72,-321.07 c 110.96,0 218.72,0 326.49,0 -34.83,-70.22 -66.53,-140.52 -98.29,-210.73 -31.7,-65.22 -53.85,-120.42 -66.53,-160.54 -12.67,45.12 -31.69,95.32 -53.91,145.52 -34.9,75.23 -69.73,150.53 -107.76,225.75 z m 1467.85,-461.58 c 199.71,0 405.84,0 611.89,0 0,35.11 0,65.21 0,95.32 -164.89,0 -329.7,0 -491.38,0 0,85.31 0,165.53 0,240.84 76.07,0 152.14,0 228.2,0 82.48,0 149.08,5 199.79,20.01 50.71,15.1 88.74,35.19 120.44,75.31 28.56,35.11 44.37,75.22 44.37,125.42 0,40.12 -12.68,75.22 -31.69,110.41 -22.15,30.03 -53.85,60.13 -98.29,80.23 -41.17,20.1 -114.1,35.11 -215.53,35.11 -123.64,0 -247.29,0 -370.93,0 0,-255.85 0,-516.71 3.13,-782.65 z m 120.51,692.33 c 82.41,0 168.02,0 253.63,0 66.53,0 117.31,-10 152.14,-35.1 34.9,-20.1 50.71,-55.21 50.71,-100.33 0,-30.1 -9.47,-55.2 -28.49,-80.31 -19.02,-20.01 -47.58,-35.1 -82.48,-40.11 -34.83,-10.01 -91.88,-10.01 -177.49,-10.01 -57.05,0 -114.17,0 -168.02,0 0,90.32 0,180.63 0,265.86 z m 1474.2,90.32 c 3.13,-255.85 3.13,-521.8 3.13,-782.65 117.31,0 237.82,0 358.26,0 63.46,0 110.97,5 142.66,10 47.58,5.01 85.61,15.1 117.31,35.19 31.69,20.02 57.05,45.12 76.14,75.23 19.01,30.1 28.49,65.21 28.49,105.32 0,65.22 -25.36,120.43 -76.07,165.62 -50.71,45.12 -145.87,67.16 -278.99,70.22 -82.55,1.94 -164.88,5.01 -240.95,5.01 -3.2,105.32 -3.2,210.73 -3.2,316.06 -44.38,0 -85.54,0 -126.78,0 z m 129.98,-411.38 c 79.28,0 161.68,0 244.09,0 79.27,0 136.32,-15.1 171.22,-40.12 34.9,-25.1 50.71,-55.2 50.71,-100.4 0,-35.11 -8.6,-61.02 -28.49,-85.23 -21.35,-25.99 -47.58,-40.2 -79.27,-45.2 -22.22,-5 -60.26,-5 -114.17,-5 -82.41,0 -164.81,0 -244.09,0 0,95.32 0,185.63 0,275.95 z m 1499.55,-371.27 c 38.11,0 76.14,0 114.18,0 0,205.73 0,411.38 -3.21,612.11 171.22,-200.73 339.24,-406.38 507.26,-612.11 41.24,0 82.48,0 126.85,0 0,260.85 0,521.79 0,777.65 -38.03,0 -76.07,0 -114.17,0 0,-200.65 0,-406.38 0,-612.12 -168.02,205.74 -336.04,411.47 -507.26,617.12 -44.37,0 -85.54,0 -126.78,0 0,-260.86 0,-521.8 3.13,-782.65 z m 1693,0 c 41.24,0 82.48,0 123.64,0 0,115.41 0,230.75 0,341.16 57.13,0 98.29,-10.01 123.65,-30.1 22.22,-15.1 50.78,-60.21 88.82,-130.43 25.35,-50.2 47.5,-85.31 63.39,-105.41 19.01,-20.02 41.24,-40.11 72.93,-50.12 31.69,-15.1 66.52,-25.1 104.63,-25.1 50.71,0 76.06,0 76.06,0 0,30.1 0,60.21 0,90.31 -3.2,0 -12.67,0 -25.35,0 -12.68,0 -22.22,0 -25.36,0 -38.03,0 -69.8,10.01 -88.81,25.1 -19.02,15.02 -41.17,50.12 -66.53,100.33 -31.76,65.21 -60.25,105.32 -82.47,125.42 -22.15,15.01 -47.51,30.11 -79.28,40.11 63.46,10.09 123.65,60.22 180.77,135.52 63.39,90.31 129.98,175.54 196.51,260.86 -53.85,0 -104.56,0 -155.34,0 -53.85,-70.22 -107.76,-140.52 -158.48,-210.74 -44.37,-60.21 -79.27,-100.32 -110.96,-120.42 -28.56,-20.02 -66.6,-35.11 -114.18,-35.11 0,125.42 0,245.85 0,366.27 -41.16,0 -82.4,0 -123.64,0 0,-255.86 0,-516.8 0,-777.65 z m 1407.67,777.65 c 120.44,-255.86 240.95,-516.8 364.6,-777.65 44.37,0 88.74,0 136.32,0 126.78,260.85 256.76,521.79 389.95,777.65 -50.71,0 -98.29,0 -145.87,0 -38.03,-75.23 -76.06,-155.53 -110.96,-235.84 -133.12,0 -266.31,0 -396.29,0 -34.83,80.31 -69.73,160.61 -104.63,235.84 -44.37,0 -88.75,0 -133.12,0 z m 272.65,-321.07 c 107.76,0 215.59,0 323.35,0 -34.82,-70.22 -66.59,-140.52 -98.28,-210.74 -31.7,-65.21 -53.85,-120.42 -69.73,-160.53 -12.68,45.12 -28.56,95.32 -50.71,145.44 -34.9,75.3 -69.73,150.52 -104.63,225.83 z m 3294.04,321.07 c 0,-255.86 0,-516.8 0,-777.65 63.39,0 126.78,0 190.24,0 72.86,185.63 149,371.27 225.07,551.9 19.01,50.12 34.9,85.23 44.37,110.33 9.54,-25.1 28.56,-65.21 50.71,-120.42 76.14,-180.55 152.21,-361.18 225.14,-546.82 53.84,0 110.97,0 168.02,0 3.13,260.86 3.13,526.8 3.13,782.66 -41.17,0 -82.41,0 -120.44,0 0,-215.74 0,-431.48 -3.2,-652.23 -88.75,220.75 -180.7,436.49 -272.65,652.23 -38.03,0 -76.07,0 -114.1,0 -91.95,-220.75 -183.9,-441.49 -275.85,-662.24 0,220.75 0,441.49 0,662.24 -41.17,0 -82.41,0 -120.44,0 z m 1851.47,-5.01 c 0,-255.85 0,-516.79 0,-777.65 228.27,0 456.54,0 684.82,0 0,35.11 0,65.22 0,95.32 -187.11,0 -374.14,0 -561.18,0 0,80.23 0,160.54 0,235.84 174.36,0 348.72,0 526.28,0 0,30.02 0,60.21 0,90.23 -177.56,0 -351.92,0 -526.28,0 0,90.32 0,175.63 0,260.94 193.38,0 386.82,0 583.33,0 0,35.11 0,65.22 0,95.32 -237.75,0 -472.36,0 -706.97,0 z m 1626.4,-777.65 c 202.92,0 408.97,0 618.22,0 0,35.11 0,65.22 0,95.32 -164.88,0 -332.9,0 -494.58,0 0,80.23 0,160.54 0,235.84 76.07,0 152.21,0 231.48,0 82.41,0 149,5 199.72,20.02 50.71,15.09 88.74,35.1 117.3,75.3 31.7,35.11 47.58,75.22 47.58,125.42 0,40.12 -12.75,75.23 -34.9,110.34 -19.02,30.1 -50.71,60.21 -95.08,80.3 -41.24,20.02 -114.18,35.11 -215.6,35.11 -123.65,0 -250.5,0 -374.14,0 0,-255.85 0,-516.79 0,-777.65 z m 123.64,687.34 c 82.41,0 171.23,0 256.84,0 66.52,0 117.3,-10.01 152.13,-35.11 34.9,-20.1 50.71,-55.21 50.71,-100.33 0,-30.1 -9.47,-55.2 -28.48,-80.3 -19.02,-20.1 -47.58,-35.11 -82.41,-40.12 -34.9,-10.09 -91.95,-10.09 -180.77,-10.09 -57.05,0 -114.1,0 -168.02,0 0,90.32 0,180.64 0,265.95 z m 1486.95,90.31 c 0,-255.85 -3.21,-516.79 -3.21,-777.65 231.48,0 459.68,0 691.16,0 0,35.11 0,65.22 0,95.32 -187.03,0 -374.14,0 -561.17,0 0,80.23 0,160.54 0,235.84 174.35,0 348.78,0 526.27,0 0,30.02 0,60.21 0,90.23 -177.49,0 -351.92,0 -526.27,0 0,90.32 0,175.63 0,260.94 193.37,0 386.82,0 586.53,0 0,35.11 0,65.22 0,95.32 -240.95,0 -478.7,0 -713.31,0 z m 1686.58,-777.65 c 196.58,0 396.29,0 596.08,0 0,260.86 0,521.8 0,777.65 -44.45,0 -85.61,0 -126.85,0 0,-225.75 0,-451.58 0,-682.33 -114.1,0 -228.28,0 -342.38,0 0,135.43 0,265.86 0,396.37 0,80.23 -8.37,139.88 -15.88,175.55 -8.31,39.71 -28.49,70.22 -57.05,90.32 -28.56,20.09 -63.39,30.1 -110.97,30.1 -28.56,0 -60.25,-5 -98.29,-10.01 6.34,-30.1 12.68,-60.21 19.02,-90.31 22.22,5 41.24,10 53.92,10 28.56,0 47.58,-10 60.25,-25.02 15.82,-20.09 22.15,-60.21 22.15,-125.5 0,-180.55 0,-361.18 0,-546.82 z m 1537.66,0 c 38.03,0 76.07,0 114.1,0 0,205.65 3.21,411.39 3.21,612.11 164.88,-200.72 332.9,-406.46 504.12,-612.11 41.17,0 82.41,0 126.78,0 0,260.86 3.21,521.8 3.21,777.65 -38.11,0 -76.14,0 -114.18,0 -3.13,-200.73 -3.13,-406.38 -3.13,-612.11 -171.22,205.73 -339.24,411.38 -504.13,612.11 -44.37,0 -85.61,0 -126.85,0 0,-255.85 0,-516.79 -3.13,-777.65 z"
           class="fil0 str0"
           inkscape:connector-curvature="0"
           style="fill:#7e6197;fill-rule:nonzero;stroke:#7e6197;stroke-width:7.61999989;stroke-miterlimit:22.92560005" />
        <path
           id="path21"
           d="M 4284.97,55.88 2628.26,3396.17 1038.07,55.88 H 80.68 V 5198.77 H 879.89 V 1659.83 L 2628.26,5213.45 4434.84,1662.28 v 3536.49 h 799.21 V 55.88 Z m 4495.73,0 c -1531.82,0 -2763.97,1155.09 -2763.97,2567.74 0,1420 1232.15,2582.49 2763.97,2582.49 1615.11,0 2838.96,-1162.49 2838.96,-2582.49 0,-1412.65 -1223.85,-2567.74 -2838.96,-2567.74 z m 0,4443.88 c -1090.65,0 -1964.76,-838.75 -1964.76,-1876.14 0,-1022.7 874.11,-1854.11 1964.76,-1854.11 1165.56,0 2039.75,831.41 2039.75,1854.11 0,1037.39 -874.19,1876.14 -2039.75,1876.14 z M 15857.32,55.88 V 2402.89 H 13201.47 V 55.88 h -807.52 v 5150.23 h 807.52 V 3050.34 h 2655.85 v 2155.77 h 807.52 V 55.88 Z"
           class="fil0 str1"
           inkscape:connector-curvature="0"
           style="fill:#7e6197;fill-rule:nonzero;stroke:#5c5278;stroke-width:7.61999989;stroke-miterlimit:22.92560005" />
        <path
           id="path23"
           d="m 21158.07,4412.92 391.3,809.29 h 907.43 L 20604.39,871.74 20306.57,53.49 h -378.92 -1.61 -1.77 -370.59 L 19297.25,711 17403.41,5222.21 h 882.48 l 407.93,-809.29 z m -349.63,-669.51 h -1764.96 l 882.48,-2292.31 z"
           class="fil1 str1"
           inkscape:connector-curvature="0"
           style="fill:#7e6197;stroke:#5c5278;stroke-width:7.61999989;stroke-miterlimit:22.92560005" />
        <g
           id="g27">
          <path
             id="path25"
             d="m 11258.05,5828.31 0.14,200 v 0 l -349.95,0.18 -349.94,0.15 -349.95,0.13 -349.94,0.11 -349.94,0.1 -349.94,0.07 -349.93,0.06 -349.94,0.04 -349.92,0.03 -349.92,0.02 h -349.91 l -349.92,-0.01 -349.89,-0.02 -349.89,-0.03 -349.88,-0.04 -349.89,-0.04 -349.86,-0.05 -349.85,-0.05 -349.84,-0.06 -349.83,-0.06 -349.82,-0.06 -349.8,-0.07 -349.8,-0.06 -349.77,-0.06 -349.76,-0.06 -349.75,-0.05 -349.73,-0.05 -349.71,-0.04 -349.69,-0.03 -349.68,-0.03 -349.65,-0.01 -349.64,-0.01 v -200 l 349.64,0.01 349.67,0.01 349.68,0.03 349.69,0.03 349.73,0.04 349.73,0.05 349.75,0.05 349.76,0.06 349.77,0.06 349.8,0.06 349.8,0.07 349.82,0.06 349.83,0.06 349.84,0.06 349.85,0.05 349.86,0.05 349.87,0.04 349.88,0.04 349.89,0.03 349.89,0.02 349.9,0.01 h 349.91 l 349.9,-0.02 349.92,-0.03 349.92,-0.04 349.93,-0.06 349.92,-0.07 349.92,-0.1 349.94,-0.11 349.93,-0.13 349.92,-0.15 z m 11185.02,-3.99 v 200 l -349.35,0.01 -349.4,0.01 -349.45,0.03 -349.49,0.04 -349.54,0.05 -349.58,0.06 -349.6,0.07 -349.64,0.07 -349.67,0.09 -349.67,0.09 -349.7,0.11 -349.72,0.11 -349.72,0.12 -349.71,0.12 -349.72,0.13 -349.72,0.14 -349.7,0.14 -349.7,0.15 -349.66,0.15 -349.65,0.16 -349.63,0.17 -349.59,0.16 -349.56,0.17 -349.52,0.18 -349.47,0.17 -349.42,0.18 -349.37,0.18 -349.32,0.19 -349.25,0.18 -349.19,0.19 -349.12,0.18 -349.05,0.19 -0.14,-200 349.05,-0.19 349.12,-0.18 349.19,-0.19 349.25,-0.18 349.32,-0.19 349.37,-0.18 349.44,-0.18 349.47,-0.17 349.52,-0.18 349.56,-0.17 349.59,-0.16 349.63,-0.17 349.65,-0.16 349.68,-0.15 349.7,-0.15 349.7,-0.14 349.72,-0.14 349.72,-0.13 349.73,-0.12 349.72,-0.12 349.72,-0.11 349.7,-0.11 349.69,-0.09 349.67,-0.09 349.64,-0.07 349.62,-0.07 349.58,-0.06 349.54,-0.05 349.51,-0.04 349.45,-0.03 349.42,-0.01 z"
             class="fil2"
             inkscape:connector-curvature="0"
             style="fill:#54265c;fill-rule:nonzero" />
        </g>
        <path
           id="path29"
           d="m 467.13,6671.17 c 0,-30.11 0,-65.21 0,-100.32 38.03,0 76.14,0 117.31,0 0,35.11 0,70.21 0,100.32 123.64,5 218.8,35.11 288.52,90.32 69.73,50.2 104.63,120.42 104.63,200.72 0,75.23 -34.9,145.44 -101.49,200.65 -69.73,55.21 -164.81,85.31 -291.66,90.32 0,35.11 0,70.22 0,100.32 -41.17,0 -79.28,0 -117.31,0 0,-30.1 0,-65.21 0,-100.32 -110.97,-5.01 -205.61,-35.92 -278.98,-85.31 -75.63,-50.93 -114.11,-120.43 -114.11,-205.66 0,-85.31 38.04,-155.53 114.11,-205.73 72.93,-55.2 168.01,-80.31 278.98,-85.31 z m 117.31,85.31 c 0,135.43 0,270.95 0,406.38 82.4,-5 145.86,-20.1 193.37,-55.21 47.58,-35.1 69.8,-85.31 69.8,-145.44 0,-60.21 -22.22,-110.41 -69.8,-145.52 -44.37,-35.11 -107.76,-55.2 -193.37,-60.21 z m -117.31,0 c -76.07,5.01 -139.46,25.1 -190.24,60.21 -47.51,35.11 -72.86,80.31 -72.86,145.52 0,60.13 25.35,110.34 72.86,145.44 47.58,35.11 110.97,50.21 190.24,55.21 0,-135.43 0,-270.95 0,-406.38 z m 1299.84,597.02 c 120.51,-255.85 244.16,-516.71 367.8,-777.65 44.37,0 88.74,0 136.32,0 129.99,260.94 259.97,521.8 389.95,777.65 -50.71,0 -98.29,0 -145.79,0 -38.11,-75.22 -76.14,-155.53 -110.97,-235.76 -133.19,0 -266.38,0 -399.49,0 -34.9,80.23 -69.73,160.54 -104.63,235.76 -44.37,0 -88.75,0 -133.19,0 z m 272.72,-321.07 c 110.96,0 218.72,0 326.49,0 -34.83,-70.22 -66.53,-140.52 -98.29,-210.73 -31.7,-65.22 -53.85,-120.42 -66.53,-160.54 -12.67,45.12 -31.69,95.32 -53.91,145.52 -34.9,75.23 -69.73,150.53 -107.76,225.75 z m 1467.85,-461.58 c 199.71,0 405.84,0 611.89,0 0,35.11 0,65.21 0,95.32 -164.89,0 -329.7,0 -491.38,0 0,85.31 0,165.53 0,240.84 76.07,0 152.14,0 228.2,0 82.48,0 149.08,5 199.79,20.01 50.71,15.1 88.74,35.19 120.44,75.31 28.56,35.11 44.37,75.22 44.37,125.42 0,40.12 -12.68,75.22 -31.69,110.41 -22.15,30.03 -53.85,60.13 -98.29,80.23 -41.17,20.1 -114.1,35.11 -215.53,35.11 -123.64,0 -247.29,0 -370.93,0 0,-255.85 0,-516.71 3.13,-782.65 z m 120.51,692.33 c 82.41,0 168.02,0 253.63,0 66.53,0 117.31,-10 152.14,-35.1 34.9,-20.1 50.71,-55.21 50.71,-100.33 0,-30.1 -9.47,-55.2 -28.49,-80.31 -19.02,-20.01 -47.58,-35.1 -82.48,-40.11 -34.83,-10.01 -91.88,-10.01 -177.49,-10.01 -57.05,0 -114.17,0 -168.02,0 0,90.32 0,180.63 0,265.86 z m 1474.2,90.32 c 3.13,-255.85 3.13,-521.8 3.13,-782.65 117.31,0 237.82,0 358.26,0 63.46,0 110.97,5 142.66,10 47.58,5.01 85.61,15.1 117.31,35.19 31.69,20.02 57.05,45.12 76.14,75.23 19.01,30.1 28.49,65.21 28.49,105.32 0,65.22 -25.36,120.43 -76.07,165.62 -50.71,45.12 -145.87,67.16 -278.99,70.22 -82.55,1.94 -164.88,5.01 -240.95,5.01 -3.2,105.32 -3.2,210.73 -3.2,316.06 -44.38,0 -85.54,0 -126.78,0 z m 129.98,-411.38 c 79.28,0 161.68,0 244.09,0 79.27,0 136.32,-15.1 171.22,-40.12 34.9,-25.1 50.71,-55.2 50.71,-100.4 0,-35.11 -8.6,-61.02 -28.49,-85.23 -21.35,-25.99 -47.58,-40.2 -79.27,-45.2 -22.22,-5 -60.26,-5 -114.17,-5 -82.41,0 -164.81,0 -244.09,0 0,95.32 0,185.63 0,275.95 z m 1499.55,-371.27 c 38.11,0 76.14,0 114.18,0 0,205.73 0,411.38 -3.21,612.11 171.22,-200.73 339.24,-406.38 507.26,-612.11 41.24,0 82.48,0 126.85,0 0,260.85 0,521.79 0,777.65 -38.03,0 -76.07,0 -114.17,0 0,-200.65 0,-406.38 0,-612.12 -168.02,205.74 -336.04,411.47 -507.26,617.12 -44.37,0 -85.54,0 -126.78,0 0,-260.86 0,-521.8 3.13,-782.65 z m 1693,0 c 41.24,0 82.48,0 123.64,0 0,115.41 0,230.75 0,341.16 57.13,0 98.29,-10.01 123.65,-30.1 22.22,-15.1 50.78,-60.21 88.82,-130.43 25.35,-50.2 47.5,-85.31 63.39,-105.41 19.01,-20.02 41.24,-40.11 72.93,-50.12 31.69,-15.1 66.52,-25.1 104.63,-25.1 50.71,0 76.06,0 76.06,0 0,30.1 0,60.21 0,90.31 -3.2,0 -12.67,0 -25.35,0 -12.68,0 -22.22,0 -25.36,0 -38.03,0 -69.8,10.01 -88.81,25.1 -19.02,15.02 -41.17,50.12 -66.53,100.33 -31.76,65.21 -60.25,105.32 -82.47,125.42 -22.15,15.01 -47.51,30.11 -79.28,40.11 63.46,10.09 123.65,60.22 180.77,135.52 63.39,90.31 129.98,175.54 196.51,260.86 -53.85,0 -104.56,0 -155.34,0 -53.85,-70.22 -107.76,-140.52 -158.48,-210.74 -44.37,-60.21 -79.27,-100.32 -110.96,-120.42 -28.56,-20.02 -66.6,-35.11 -114.18,-35.11 0,125.42 0,245.85 0,366.27 -41.16,0 -82.4,0 -123.64,0 0,-255.86 0,-516.8 0,-777.65 z m 1407.67,777.65 c 120.44,-255.86 240.95,-516.8 364.6,-777.65 44.37,0 88.74,0 136.32,0 126.78,260.85 256.76,521.79 389.95,777.65 -50.71,0 -98.29,0 -145.87,0 -38.03,-75.23 -76.06,-155.53 -110.96,-235.84 -133.12,0 -266.31,0 -396.29,0 -34.83,80.31 -69.73,160.61 -104.63,235.84 -44.37,0 -88.75,0 -133.12,0 z m 272.65,-321.07 c 107.76,0 215.59,0 323.35,0 -34.82,-70.22 -66.59,-140.52 -98.28,-210.74 -31.7,-65.21 -53.85,-120.42 -69.73,-160.53 -12.68,45.12 -28.56,95.32 -50.71,145.44 -34.9,75.3 -69.73,150.52 -104.63,225.83 z m 3294.04,321.07 c 0,-255.86 0,-516.8 0,-777.65 63.39,0 126.78,0 190.24,0 72.86,185.63 149,371.27 225.07,551.9 19.01,50.12 34.9,85.23 44.37,110.33 9.54,-25.1 28.56,-65.21 50.71,-120.42 76.14,-180.55 152.21,-361.18 225.14,-546.82 53.84,0 110.97,0 168.02,0 3.13,260.86 3.13,526.8 3.13,782.66 -41.17,0 -82.41,0 -120.44,0 0,-215.74 0,-431.48 -3.2,-652.23 -88.75,220.75 -180.7,436.49 -272.65,652.23 -38.03,0 -76.07,0 -114.1,0 -91.95,-220.75 -183.9,-441.49 -275.85,-662.24 0,220.75 0,441.49 0,662.24 -41.17,0 -82.41,0 -120.44,0 z m 1851.47,-5.01 c 0,-255.85 0,-516.79 0,-777.65 228.27,0 456.54,0 684.82,0 0,35.11 0,65.22 0,95.32 -187.11,0 -374.14,0 -561.18,0 0,80.23 0,160.54 0,235.84 174.36,0 348.72,0 526.28,0 0,30.02 0,60.21 0,90.23 -177.56,0 -351.92,0 -526.28,0 0,90.32 0,175.63 0,260.94 193.38,0 386.82,0 583.33,0 0,35.11 0,65.22 0,95.32 -237.75,0 -472.36,0 -706.97,0 z m 1626.4,-777.65 c 202.92,0 408.97,0 618.22,0 0,35.11 0,65.22 0,95.32 -164.88,0 -332.9,0 -494.58,0 0,80.23 0,160.54 0,235.84 76.07,0 152.21,0 231.48,0 82.41,0 149,5 199.72,20.02 50.71,15.09 88.74,35.1 117.3,75.3 31.7,35.11 47.58,75.22 47.58,125.42 0,40.12 -12.75,75.23 -34.9,110.34 -19.02,30.1 -50.71,60.21 -95.08,80.3 -41.24,20.02 -114.18,35.11 -215.6,35.11 -123.65,0 -250.5,0 -374.14,0 0,-255.85 0,-516.79 0,-777.65 z m 123.64,687.34 c 82.41,0 171.23,0 256.84,0 66.52,0 117.3,-10.01 152.13,-35.11 34.9,-20.1 50.71,-55.21 50.71,-100.33 0,-30.1 -9.47,-55.2 -28.48,-80.3 -19.02,-20.1 -47.58,-35.11 -82.41,-40.12 -34.9,-10.09 -91.95,-10.09 -180.77,-10.09 -57.05,0 -114.1,0 -168.02,0 0,90.32 0,180.64 0,265.95 z m 1486.95,90.31 c 0,-255.85 -3.21,-516.79 -3.21,-777.65 231.48,0 459.68,0 691.16,0 0,35.11 0,65.22 0,95.32 -187.03,0 -374.14,0 -561.17,0 0,80.23 0,160.54 0,235.84 174.35,0 348.78,0 526.27,0 0,30.02 0,60.21 0,90.23 -177.49,0 -351.92,0 -526.27,0 0,90.32 0,175.63 0,260.94 193.37,0 386.82,0 586.53,0 0,35.11 0,65.22 0,95.32 -240.95,0 -478.7,0 -713.31,0 z m 1686.58,-777.65 c 196.58,0 396.29,0 596.08,0 0,260.86 0,521.8 0,777.65 -44.45,0 -85.61,0 -126.85,0 0,-225.75 0,-451.58 0,-682.33 -114.1,0 -228.28,0 -342.38,0 0,135.43 0,265.86 0,396.37 0,80.23 -8.37,139.88 -15.88,175.55 -8.31,39.71 -28.49,70.22 -57.05,90.32 -28.56,20.09 -63.39,30.1 -110.97,30.1 -28.56,0 -60.25,-5 -98.29,-10.01 6.34,-30.1 12.68,-60.21 19.02,-90.31 22.22,5 41.24,10 53.92,10 28.56,0 47.58,-10 60.25,-25.02 15.82,-20.09 22.15,-60.21 22.15,-125.5 0,-180.55 0,-361.18 0,-546.82 z m 1537.66,0 c 38.03,0 76.07,0 114.1,0 0,205.65 3.21,411.39 3.21,612.11 164.88,-200.72 332.9,-406.46 504.12,-612.11 41.17,0 82.41,0 126.78,0 0,260.86 3.21,521.8 3.21,777.65 -38.11,0 -76.14,0 -114.18,0 -3.13,-200.73 -3.13,-406.38 -3.13,-612.11 -171.22,205.73 -339.24,411.38 -504.13,612.11 -44.37,0 -85.61,0 -126.85,0 0,-255.85 0,-516.79 -3.13,-777.65 z"
           class="fil2 str2"
           inkscape:connector-curvature="0"
           style="fill:#54265c;fill-rule:nonzero;stroke:#54265c;stroke-width:7.61999989;stroke-miterlimit:22.92560005" />
        <path
           id="path31"
           d="M 4284.97,55.88 2628.26,3396.17 1038.07,55.88 H 80.68 V 5198.77 H 879.89 V 1659.83 L 2628.26,5213.45 4434.84,1662.28 v 3536.49 h 799.21 V 55.88 Z m 4495.73,0 c -1531.82,0 -2763.97,1155.09 -2763.97,2567.74 0,1420 1232.15,2582.49 2763.97,2582.49 1615.11,0 2838.96,-1162.49 2838.96,-2582.49 0,-1412.65 -1223.85,-2567.74 -2838.96,-2567.74 z m 0,4443.88 c -1090.65,0 -1964.76,-838.75 -1964.76,-1876.14 0,-1022.7 874.11,-1854.11 1964.76,-1854.11 1165.56,0 2039.75,831.41 2039.75,1854.11 0,1037.39 -874.19,1876.14 -2039.75,1876.14 z M 15857.32,55.88 V 2402.89 H 13201.47 V 55.88 h -807.52 v 5150.23 h 807.52 V 3050.34 h 2655.85 v 2155.77 h 807.52 V 55.88 Z"
           class="fil2 str2"
           inkscape:connector-curvature="0"
           style="fill:#54265c;fill-rule:nonzero;stroke:#54265c;stroke-width:7.61999989;stroke-miterlimit:22.92560005" />
        <path
           id="path33"
           d="m 21158.07,4412.92 391.3,809.29 h 907.43 L 20604.39,871.74 20306.57,53.49 h -378.92 -1.61 -1.77 -370.59 L 19297.25,711 17403.41,5222.21 h 882.48 l 407.93,-809.29 z m -349.63,-669.51 h -1764.96 l 882.48,-2292.31 z"
           class="fil3 str2"
           inkscape:connector-curvature="0"
           style="fill:#54265c;stroke:#54265c;stroke-width:7.61999989;stroke-miterlimit:22.92560005" />
      </g>
    </g>
  </g>
</svg>
