<svg xmlns="http://www.w3.org/2000/svg" xmlns:xlink="http://www.w3.org/1999/xlink" width="612.014" height="17854" viewBox="0 0 612.014 17854"><svg viewBox="0 0 129 129" width="129" height="129" id="arrow-down" y="0"><path d="M121.3 34.6c-1.6-1.6-4.2-1.6-5.8 0l-51 51.1-51.1-51.1c-1.6-1.6-4.2-1.6-5.8 0-1.6 1.6-1.6 4.2 0 5.8l53.9 53.9c.8.8 1.8 1.2 2.9 1.2 1 0 2.1-.4 2.9-1.2l53.9-53.9c1.7-1.6 1.7-4.2.1-5.8z"></path></svg><svg width="451.847" height="451.847" viewBox="0 0 451.847 451.847" id="arrow-down-fat" y="129"><path d="M225.923 354.706c-8.098 0-16.195-3.092-22.369-9.263L9.27 151.157c-12.359-12.359-12.359-32.397 0-44.751 12.354-12.354 32.388-12.354 44.748 0l171.905 171.915 171.906-171.909c12.359-12.354 32.391-12.354 44.744 0 12.365 12.354 12.365 32.392 0 44.751L248.292 345.449c-6.177 6.172-14.274 9.257-22.369 9.257z"></path></svg><svg viewBox="0 0 477.175 477.175" width="477.175" height="477.175" id="arrow-left" y="581"><path d="M145.188 238.575l215.5-215.5c5.3-5.3 5.3-13.8 0-19.1s-13.8-5.3-19.1 0l-225.1 225.1c-5.3 5.3-5.3 13.8 0 19.1l225.1 225c2.6 2.6 6.1 4 9.5 4s6.9-1.3 9.5-4c5.3-5.3 5.3-13.8 0-19.1l-215.4-215.5z"></path></svg><svg viewBox="0 0 492 492" width="492" height="492" id="arrow-left-fat" y="1059"><path d="M464.344 207.418l.768.168H135.888l103.496-103.724c5.068-5.064 7.848-11.924 7.848-19.124 0-7.2-2.78-14.012-7.848-19.088L223.28 49.538c-5.064-5.064-11.812-7.864-19.008-7.864-7.2 0-13.952 2.78-19.016 7.844L7.844 226.914C2.76 231.998-.02 238.77 0 245.974c-.02 7.244 2.76 14.02 7.844 19.096l177.412 177.412c5.064 5.06 11.812 7.844 19.016 7.844 7.196 0 13.944-2.788 19.008-7.844l16.104-16.112c5.068-5.056 7.848-11.808 7.848-19.008 0-7.196-2.78-13.592-7.848-18.652L134.72 284.406h329.992c14.828 0 27.288-12.78 27.288-27.6v-22.788c0-14.82-12.828-26.6-27.656-26.6z"></path></svg><svg viewBox="0 0 477.175 477.175" width="477.175" height="477.175" id="arrow-right" y="1551"><path d="M360.731 229.075l-225.1-225.1c-5.3-5.3-13.8-5.3-19.1 0s-5.3 13.8 0 19.1l215.5 215.5-215.5 215.5c-5.3 5.3-5.3 13.8 0 19.1 2.6 2.6 6.1 4 9.5 4 3.4 0 6.9-1.3 9.5-4l225.1-225.1c5.3-5.2 5.3-13.8.1-19z"></path></svg><svg viewBox="0 0 492.004 492.004" width="492.004" height="492.004" id="arrow-right-fat" y="2029"><path d="M484.14 226.886L306.46 49.202c-5.072-5.072-11.832-7.856-19.04-7.856-7.216 0-13.972 2.788-19.044 7.856l-16.132 16.136c-5.068 5.064-7.86 11.828-7.86 19.04 0 7.208 2.792 14.2 7.86 19.264L355.9 207.526H26.58C11.732 207.526 0 219.15 0 234.002v22.812c0 14.852 11.732 27.648 26.58 27.648h330.496L252.248 388.926c-5.068 5.072-7.86 11.652-7.86 18.864 0 7.204 2.792 13.88 7.86 18.948l16.132 16.084c5.072 5.072 11.828 7.836 19.044 7.836 7.208 0 13.968-2.8 19.04-7.872l177.68-177.68c5.084-5.088 7.88-11.88 7.86-19.1.016-7.244-2.776-14.04-7.864-19.12z"></path></svg><svg width="64" height="64" viewBox="0 0 64 64" id="arrow-up" y="2522"><path d="M3.352 48.296l28.56-28.328 28.58 28.347c.397.394.917.59 1.436.59.52 0 1.04-.196 1.436-.59a2.003 2.003 0 0 0 0-2.849l-29.98-29.735c-.2-.2-.494-.375-.757-.475a2.052 2.052 0 0 0-2.166.456L.479 45.447a2.003 2.003 0 0 0 0 2.849 2.045 2.045 0 0 0 2.873 0z"></path></svg><svg width="451.847" height="451.846" viewBox="0 0 451.847 451.846" id="arrow-up-fat" y="2586"><path d="M248.292 106.406l194.281 194.29c12.365 12.359 12.365 32.391 0 44.744-12.354 12.354-32.391 12.354-44.744 0L225.923 173.529 54.018 345.44c-12.36 12.354-32.395 12.354-44.748 0-12.359-12.354-12.359-32.391 0-44.75L203.554 106.4c6.18-6.174 14.271-9.259 22.369-9.259 8.095 0 16.192 3.091 22.369 9.265z"></path></svg><svg viewBox="0 0 475.2 475.2" width="475.2" height="475.2" id="cancel" y="3038"><path d="M405.6 69.6C360.7 24.7 301.1 0 237.6 0s-123.1 24.7-168 69.6S0 174.1 0 237.6s24.7 123.1 69.6 168 104.5 69.6 168 69.6 123.1-24.7 168-69.6 69.6-104.5 69.6-168-24.7-123.1-69.6-168zm-19.1 316.9c-39.8 39.8-92.7 61.7-148.9 61.7s-109.1-21.9-148.9-61.7c-82.1-82.1-82.1-215.7 0-297.8C128.5 48.9 181.4 27 237.6 27s109.1 21.9 148.9 61.7c82.1 82.1 82.1 215.7 0 297.8z"></path><path d="M342.3 132.9c-5.3-5.3-13.8-5.3-19.1 0l-85.6 85.6-85.6-85.6c-5.3-5.3-13.8-5.3-19.1 0-5.3 5.3-5.3 13.8 0 19.1l85.6 85.6-85.6 85.6c-5.3 5.3-5.3 13.8 0 19.1 2.6 2.6 6.1 4 9.5 4s6.9-1.3 9.5-4l85.6-85.6 85.6 85.6c2.6 2.6 6.1 4 9.5 4 3.5 0 6.9-1.3 9.5-4 5.3-5.3 5.3-13.8 0-19.1l-85.4-85.6 85.6-85.6c5.3-5.3 5.3-13.8 0-19.1z"></path></svg><svg width="33" height="23" viewBox="0 0 33 23" id="card" y="3514"><defs><path id="a" d="M468 1286.6v2.3h-30v-2.3c0-.85.67-1.54 1.5-1.54h27c.83 0 1.5.69 1.5 1.54zm-30 5.38h30v11.54c0 .85-.67 1.54-1.5 1.54h-27c-.83 0-1.5-.69-1.5-1.54zm10.12 8.46c0-.84-.67-1.53-1.5-1.53-.82 0-1.5.69-1.5 1.53 0-.84-.67-1.53-1.5-1.53-.82 0-1.5.69-1.5 1.53 0 .85.68 1.54 1.5 1.54.83 0 1.5-.69 1.5-1.54 0 .85.68 1.54 1.5 1.54.83 0 1.5-.69 1.5-1.54z"></path></defs><use xlink:href="#a" transform="translate(-436 -1284)"></use></svg><svg viewBox="0 0 512 512" width="512" height="512" id="cart" y="3537"><path d="M485.7 198.5c-10.7-13.4-25.3-20.8-41.1-20.8h-36.1C405.1 85.1 338 11 256 11S106.9 85.1 103.5 177.7H67.4c-15.8 0-30.4 7.4-41.1 20.8-13.5 16.8-18.4 40.2-13.3 62.7L56.3 452c6.5 28.8 28.9 49 54.4 49h290.5c25.5 0 47.9-20.1 54.4-49L499 261.2c5.1-22.5.2-45.9-13.3-62.7zM256 51.8c59.6 0 108.4 55.8 111.6 125.9H144.4c3.2-70 52-125.9 111.6-125.9zm203.2 200.3L415.9 443c-2.2 9.8-8.5 17.2-14.6 17.2H110.7c-6.1 0-12.4-7.4-14.6-17.2L52.8 252.1c-2.3-10.1-3.7-33.6 14.6-33.6h377.2c19.7 0 16.9 23.5 14.6 33.6z"></path><path d="M154.7 259.1c-11.3 0-20.4 9.1-20.4 20.4V407c0 11.3 9.1 20.4 20.4 20.4 11.3 0 20.4-9.1 20.4-20.4V279.5c.1-11.2-9.1-20.4-20.4-20.4zm98.9 0c-11.3 0-20.4 9.1-20.4 20.4V407c0 11.3 9.1 20.4 20.4 20.4 11.3 0 20.4-9.1 20.4-20.4V279.5c0-11.2-9.2-20.4-20.4-20.4zm98.8 0c-11.3 0-20.4 9.1-20.4 20.4V407c0 11.3 9.1 20.4 20.4 20.4 11.3 0 20.4-9.1 20.4-20.4V279.5c0-11.2-9.1-20.4-20.4-20.4z"></path></svg><svg viewBox="0 0 191.667 191.667" width="191.667" height="191.667" id="check-round" y="4049"><path d="M95.833 0C42.991 0 0 42.99 0 95.833s42.991 95.834 95.833 95.834 95.833-42.991 95.833-95.834S148.676 0 95.833 0zm55.029 79.646l-60.207 60.207a13.463 13.463 0 0 1-9.583 3.969c-3.62 0-7.023-1.409-9.583-3.969l-30.685-30.685a13.464 13.464 0 0 1-3.97-9.583c0-3.621 1.41-7.024 3.97-9.584a13.46 13.46 0 0 1 9.583-3.97c3.62 0 7.024 1.41 9.583 3.971l21.101 21.1 50.623-50.623a13.463 13.463 0 0 1 9.583-3.969c3.62 0 7.023 1.409 9.583 3.969 5.286 5.286 5.286 13.883.002 19.167z"></path></svg><svg viewBox="0 0 26 26" width="26" height="26" id="checked" y="4241"><path d="M.3 14c-.2-.2-.3-.5-.3-.7s.1-.5.3-.7l1.4-1.4c.4-.4 1-.4 1.4 0l.1.1 5.5 5.9c.2.2.5.2.7 0L22.8 3.3h.1c.4-.4 1-.4 1.4 0l1.4 1.4c.4.4.4 1 0 1.4l-16 16.6c-.2.2-.4.3-.7.3-.3 0-.5-.1-.7-.3L.5 14.3.3 14z"></path></svg><svg viewBox="0 0 372.96 372.96" width="372.96" height="372.96" id="clock" y="4267"><path d="M186.48 0C83.49 0 0 83.49 0 186.48s83.49 186.48 186.48 186.48 186.48-83.49 186.48-186.48C372.828 83.545 289.415.132 186.48 0zm8 356.56v-32.8a8 8 0 0 0-16 0v32.8C90.759 352.372 20.588 282.201 16.4 194.48h32.8a8 8 0 0 0 0-16H16.4C20.588 90.759 90.759 20.588 178.48 16.4v32.8a8 8 0 0 0 16 0V16.4c87.721 4.188 157.892 74.359 162.08 162.08h-32.8a8 8 0 0 0 0 16h32.88c-4.191 87.75-74.408 157.932-162.16 162.08z"></path><path d="M270.88 260.88l-76.4-77.68v-80.72a8 8 0 0 0-16 0v84a8 8 0 0 0 2.32 5.6l78.64 80a8.005 8.005 0 1 0 11.44-11.2z"></path></svg><svg width="54.422" height="54.422" viewBox="0 0 139 139" id="close" y="4640"><path class="fil0" d="M7 0l63 63 62-63 7 7-63 63 63 62-7 7-62-63-63 63-7-7 63-62L0 7z"></path></svg><svg viewBox="0 0 21.9 21.9" width="21.9" height="21.9" id="close-fat" y="4695"><path d="M14.1 11.3c-.2-.2-.2-.5 0-.7l7.5-7.5c.2-.2.3-.5.3-.7s-.1-.5-.3-.7L20.2.3c-.2-.2-.5-.3-.7-.3-.3 0-.5.1-.7.3l-7.5 7.5c-.2.2-.5.2-.7 0L3.1.3C2.9.1 2.6 0 2.4 0s-.5.1-.7.3L.3 1.7c-.2.2-.3.5-.3.7s.1.5.3.7l7.5 7.5c.2.2.2.5 0 .7L.3 18.8c-.2.2-.3.5-.3.7s.1.5.3.7l1.4 1.4c.2.2.5.3.7.3s.5-.1.7-.3l7.5-7.5c.2-.2.5-.2.7 0l7.5 7.5c.2.2.5.3.7.3s.5-.1.7-.3l1.4-1.4c.2-.2.3-.5.3-.7s-.1-.5-.3-.7l-7.5-7.5z"></path></svg><svg viewBox="0 0 471.2 471.2" width="471.2" height="471.2" id="download" y="4717"><path d="M457.7 230.15c-7.5 0-13.5 6-13.5 13.5v122.8c0 33.4-27.2 60.5-60.5 60.5H87.5c-33.4 0-60.5-27.2-60.5-60.5v-124.8c0-7.5-6-13.5-13.5-13.5s-13.5 6-13.5 13.5v124.8c0 48.3 39.3 87.5 87.5 87.5h296.2c48.3 0 87.5-39.3 87.5-87.5v-122.8c0-7.4-6-13.5-13.5-13.5z"></path><path d="M226.1 346.75c2.6 2.6 6.1 4 9.5 4s6.9-1.3 9.5-4l85.8-85.8c5.3-5.3 5.3-13.8 0-19.1-5.3-5.3-13.8-5.3-19.1 0l-62.7 62.8V30.75c0-7.5-6-13.5-13.5-13.5s-13.5 6-13.5 13.5v273.9l-62.8-62.8c-5.3-5.3-13.8-5.3-19.1 0-5.3 5.3-5.3 13.8 0 19.1l85.9 85.8z"></path></svg><svg width="22" height="22.002" viewBox="0 0 22 22.002" id="edit" y="5189"><path data-name="Union 20" d="M1.275 17.402l3.322 3.326-4.6 1.273zm.83-1.668l12.9-12.9 4.16 4.16-12.9 12.9zm14.15-14.152l.939-.936a2.21 2.21 0 0 1 3.123 0l1.037 1.035a2.216 2.216 0 0 1 0 3.125l-.937.938z"></path></svg><svg width="22.499" height="23" viewBox="0 0 22.499 23" id="exit" y="5212"><g data-name="Group 626"><path data-name="Path 202" d="M12.486 20.7H5.092a2.8 2.8 0 0 1-2.793-2.793V5.093A2.8 2.8 0 0 1 5.092 2.3h7.392a1.15 1.15 0 1 0 0-2.3H5.092A5.1 5.1 0 0 0-.001 5.093v12.813a5.1 5.1 0 0 0 5.093 5.093h7.392a1.15 1.15 0 0 0 0-2.3z"></path><path data-name="Path 203" d="M22.499 11.544a1.034 1.034 0 0 0-.006-.118 1.083 1.083 0 0 0-.055-.283.96.96 0 0 0-.04-.114 1.136 1.136 0 0 0-.227-.342l-4.929-4.929a1.15 1.15 0 0 0-1.626 1.626l2.966 2.966H9.529a1.15 1.15 0 1 0 0 2.3h9.056l-2.966 2.966a1.15 1.15 0 1 0 1.626 1.626l4.929-4.929c.01-.01.014-.025.023-.036a1.149 1.149 0 0 0 .227-.337.249.249 0 0 0 .008-.031 1.125 1.125 0 0 0 .067-.365z"></path></g></svg><svg height="512" viewBox="0 0 511 512" width="512" id="file" y="5235"><path d="M310.504 222c-48.524 0-88 39.477-88 88s39.476 88 88 88c48.523 0 88-39.477 88-88s-39.477-88-88-88zm0 156c-37.496 0-68-30.504-68-68s30.504-68 68-68 68 30.504 68 68-30.504 68-68 68zm0 0"></path><path d="M502.566 454.113l-79.363-79.367c11-19.074 17.3-41.187 17.3-64.746 0-34.77-13.722-66.39-36.03-89.742v-112.27h-.024c0-2.601-.992-5.156-2.902-7.07L303.559 2.93c-1.914-1.914-4.473-2.903-7.075-2.903 0-.011 0-.015.004-.027H30.5C13.957 0 .5 13.457.5 30v452c0 16.543 13.457 30 30 30h343.977c16.539 0 30-13.457 30-30v-30.07l50.136 50.14c6.61 6.61 15.293 9.914 23.98 9.914 8.684 0 17.368-3.304 23.977-9.914 13.22-13.222 13.22-34.734-.004-47.957zM310.504 420c-60.652 0-110-49.348-110-110s49.348-110 110-110 110 49.348 110 110-49.348 110-110 110zm-4.016-385.855l63.844 63.847h-53.844c-5.515 0-10-4.488-10-10zM384.477 482c0 5.516-4.489 10-10 10H30.5c-5.516 0-10-4.484-10-10V30c0-5.516 4.484-10 10-10h255.988v67.988c0 16.543 13.457 30 30 30h67.985v85.172c-21.008-14.594-46.504-23.16-73.97-23.16-71.683 0-130 58.316-130 130 0 13.996 2.235 27.484 6.349 40.129h-122.2c-5.52 0-10 4.476-10 10 0 5.52 4.48 10 10 10h127.696c.941 0 1.855-.14 2.718-.387C216.738 411.445 260.348 440 310.504 440c23.555 0 45.668-6.3 64.742-17.3l9.23 9.23zm103.949 5.926c-5.422 5.426-14.246 5.426-19.668 0l-76.738-76.739a131.133 131.133 0 0 0 19.667-19.667l76.739 76.734c5.426 5.426 5.426 14.25 0 19.672zm0 0"></path><path d="M310.504 265.004c-5.524 0-10 4.476-10 10 0 5.523 4.476 10 10 10 13.781 0 24.996 11.215 24.996 24.996 0 5.523 4.477 10 10 10s10-4.477 10-10c0-24.813-20.184-44.996-44.996-44.996zm-155.856 15.789H64.652c-5.52 0-10 4.477-10 10s4.48 10 10 10h89.996c5.524 0 10-4.477 10-10s-4.476-10-10-10zm5.926-69.333H64.652c-5.52 0-10 4.477-10 10 0 5.52 4.48 10 10 10h95.922c5.524 0 10-4.48 10-10 0-5.523-4.476-10-10-10zm29.926 208c-2.633 0-5.21 1.067-7.07 2.93a10.073 10.073 0 0 0-2.93 7.07c0 2.63 1.07 5.212 2.93 7.067a10.06 10.06 0 0 0 7.07 2.934c2.629 0 5.21-1.07 7.078-2.934a10.056 10.056 0 0 0 2.922-7.066c0-2.633-1.063-5.211-2.922-7.07a10.095 10.095 0 0 0-7.078-2.93zm-41.07 0H64.652c-5.52 0-10 4.478-10 10 0 5.52 4.48 10 10 10h84.778c5.52 0 10-4.48 10-10 0-5.522-4.477-10-10-10zM64.648 162.129c2.641 0 5.211-1.07 7.07-2.93a10.043 10.043 0 0 0 2.93-7.07c0-2.629-1.058-5.207-2.93-7.078a10.072 10.072 0 0 0-7.07-2.922 10.09 10.09 0 0 0-7.07 2.922 10.077 10.077 0 0 0-2.93 7.078c0 2.633 1.07 5.21 2.93 7.07a10.087 10.087 0 0 0 7.07 2.93zm191.852-20H107.04c-5.52 0-10 4.476-10 10 0 5.52 4.48 10 10 10H256.5c5.523 0 10-4.48 10-10 0-5.524-4.477-10-10-10zM64.652 92.793H256.5c5.523 0 10-4.477 10-10s-4.477-10-10-10H64.652c-5.52 0-10 4.477-10 10s4.48 10 10 10zm0 0"></path></svg><svg viewBox="0 0 59 59" width="59" height="59" id="garbage" y="5747"><path d="M29.5 51a1 1 0 0 0 1-1V17a1 1 0 1 0-2 0v33a1 1 0 0 0 1 1zm-10 0a1 1 0 0 0 1-1V17a1 1 0 1 0-2 0v33a1 1 0 0 0 1 1zm20 0a1 1 0 0 0 1-1V17a1 1 0 1 0-2 0v33a1 1 0 0 0 1 1z"></path><path d="M52.5 6H38.456c-.11-1.25-.495-3.358-1.813-4.711C35.809.434 34.751 0 33.499 0H23.5c-1.252 0-2.31.434-3.144 1.289C19.038 2.642 18.653 4.75 18.543 6H6.5a1 1 0 1 0 0 2h2.041l1.915 46.021C10.493 55.743 11.565 59 15.364 59h28.272c3.799 0 4.871-3.257 4.907-4.958L50.459 8H52.5a1 1 0 1 0 0-2zM21.792 2.681C22.24 2.223 22.799 2 23.5 2h9.999c.701 0 1.26.223 1.708.681.805.823 1.128 2.271 1.24 3.319H20.553c.112-1.048.435-2.496 1.239-3.319zm24.752 51.298C46.538 54.288 46.4 57 43.636 57H15.364c-2.734 0-2.898-2.717-2.909-3.042L10.542 8h37.915l-1.913 45.979z"></path></svg><svg viewBox="0 0 471.701 471.701" width="471.701" height="471.701" id="heart" y="5806"><path d="M433.601 67.001c-24.7-24.7-57.4-38.2-92.3-38.2s-67.7 13.6-92.4 38.3l-12.9 12.9-13.1-13.1c-24.7-24.7-57.6-38.4-92.5-38.4-34.8 0-67.6 13.6-92.2 38.2-24.7 24.7-38.3 57.5-38.2 92.4 0 34.9 13.7 67.6 38.4 92.3l187.8 187.8c2.6 2.6 6.1 4 9.5 4 3.4 0 6.9-1.3 9.5-3.9l188.2-187.5c24.7-24.7 38.3-57.5 38.3-92.4.1-34.9-13.4-67.7-38.1-92.4zm-19.2 165.7l-178.7 178-178.3-178.3c-19.6-19.6-30.4-45.6-30.4-73.3s10.7-53.7 30.3-73.2c19.5-19.5 45.5-30.3 73.1-30.3 27.7 0 53.8 10.8 73.4 30.4l22.6 22.6c5.3 5.3 13.8 5.3 19.1 0l22.4-22.4c19.6-19.6 45.7-30.4 73.3-30.4 27.6 0 53.6 10.8 73.2 30.3 19.6 19.6 30.3 45.6 30.3 73.3.1 27.7-10.7 53.7-30.3 73.3z"></path></svg><svg viewBox="0 0 486.196 486.196" width="486.196" height="486.196" id="house" y="6278"><path d="M481.708 220.456l-228.8-204.6c-.4-.4-.8-.7-1.3-1-5-4.8-13-5-18.3-.3l-228.8 204.6c-5.6 5-6 13.5-1.1 19.1 2.7 3 6.4 4.5 10.1 4.5 3.2 0 6.4-1.1 9-3.4l41.2-36.9v238.6c0 18.7 15.2 34 34 34h72.2c17.6 0 31.9-14.3 31.9-31.9v-121.3c0-2.7 2.2-4.9 4.9-4.9h72.9c2.7 0 4.9 2.2 4.9 4.9v121.3c0 17.6 14.3 31.9 31.9 31.9h72.2c19 0 34-18.7 34-42.6v-228.7l41.2 36.9c2.6 2.3 5.8 3.4 9 3.4 3.7 0 7.4-1.5 10.1-4.5 4.8-5.6 4.3-14.1-1.2-19.1zm-86.2 66.7v145.1c0 9.7-4.8 15.6-7 15.6h-72.2c-2.7 0-4.9-2.2-4.9-4.9v-121.1c0-17.6-14.3-31.9-31.9-31.9h-72.9c-17.6 0-31.9 14.3-31.9 31.9v121.3c0 2.7-2.2 4.9-4.9 4.9h-72.2c-3.8 0-7-3.1-7-7v-262.8l151.8-135.6 153.1 136.9v107.6z"></path></svg><svg viewBox="0 0 330 330" width="330" height="330" id="info" y="6765"><path d="M165 0C74.019 0 0 74.02 0 165.001 0 255.982 74.019 330 165 330s165-74.018 165-164.999S255.981 0 165 0zm0 300c-74.44 0-135-60.56-135-134.999S90.56 30 165 30s135 60.562 135 135.001C300 239.44 239.439 300 165 300z"></path><path d="M164.998 70c-11.026 0-19.996 8.976-19.996 20.009 0 11.023 8.97 19.991 19.996 19.991 11.026 0 19.996-8.968 19.996-19.991 0-11.033-8.97-20.009-19.996-20.009zm.002 70c-8.284 0-15 6.716-15 15v90c0 8.284 6.716 15 15 15 8.284 0 15-6.716 15-15v-90c0-8.284-6.716-15-15-15z"></path></svg><svg viewBox="0 0 490.4 490.4" width="490.4" height="490.4" id="interface" y="7095"><path d="M245.2 490.4c135.2 0 245.2-110 245.2-245.2S380.4 0 245.2 0 0 110 0 245.2s110 245.2 245.2 245.2zm0-465.9c121.7 0 220.7 99 220.7 220.7s-99 220.7-220.7 220.7-220.7-99-220.7-220.7 99-220.7 220.7-220.7z"></path><path d="M206.5 349.6c2.3 2.3 5.4 3.6 8.7 3.6 3.2 0 6.3-1.3 8.6-3.6l147.5-146.7c2.3-2.3 3.6-5.4 3.6-8.7 0-3.2-1.3-6.4-3.6-8.7l-44.6-44.8c-4.8-4.8-12.5-4.8-17.3-.1l-94 93.5-34.2-34.4c-2.3-2.3-5.4-3.6-8.7-3.6-3.2 0-6.3 1.3-8.6 3.6l-44.8 44.6c-2.3 2.3-3.6 5.4-3.6 8.7 0 3.2 1.3 6.4 3.6 8.7l87.4 87.9zm-34-123.9l34.3 34.5c4.8 4.8 12.5 4.8 17.3.1l94-93.5 27.3 27.4-130.1 129.4-70.2-70.6 27.4-27.3z"></path></svg><svg width="96" height="95.428" viewBox="0 0 96 95.428" id="like" y="7586"><path data-name="Path 83" d="M93.4 51.227a10.194 10.194 0 0 0-7.6-17H66A65.927 65.927 0 0 0 68.8 17v-3.4A13.617 13.617 0 0 0 55.2 0h-3.4a3.4 3.4 0 0 0-3.3 2.575l-1.852 7.41c-2.6 10.377-10.835 21.826-19.362 23.907a10.214 10.214 0 0 0-9.488-6.465H3.4a3.4 3.4 0 0 0-3.4 3.4v61.2a3.4 3.4 0 0 0 3.4 3.4h14.4a10.211 10.211 0 0 0 9.207-5.814l11.682 3.894a37.318 37.318 0 0 0 11.828 1.92H79a10.2 10.2 0 0 0 9.484-13.958 10.194 10.194 0 0 0 4.912-16.642 10.18 10.18 0 0 0 0-13.6zm-72.2 34a3.4 3.4 0 0 1-3.4 3.4h-11v-54.4h11a3.4 3.4 0 0 1 3.4 3.4zm57.8-30.6h6.8a3.4 3.4 0 1 1 0 6.8H79a3.4 3.4 0 0 0 0 6.8h6.8a3.4 3.4 0 1 1 0 6.8H79a3.4 3.4 0 1 0 0 6.8 3.4 3.4 0 0 1 0 6.8H50.517a30.534 30.534 0 0 1-9.679-1.571L28 82.777V40.705c5.333-1.013 10.554-4.391 15.266-9.919a49.611 49.611 0 0 0 9.98-19.151L54.454 6.8h.746a6.808 6.808 0 0 1 6.8 6.8V17c0 4.565-1.428 13.321-3.255 17.229H51.8a3.4 3.4 0 0 0 0 6.8h34a3.4 3.4 0 1 1 0 6.8H79a3.4 3.4 0 0 0 0 6.8z"></path></svg><svg width="267.716" height="283.646" viewBox="0 0 70.833176 75.047997" id="like--color" y="7682"><defs id="defs3745"><style id="style3776">.fil0{fill:#c9bfcd}</style><clipPath id="clipPath3823"><use xlink:href="#g3819" id="use3825" width="100%" height="100%"></use></clipPath></defs><g id="layer1" transform="translate(217.601 -57.637)"><g id="g3838"><g clip-path="url(#clipPath3823)" id="g3821"><g id="g3819"><g id="g3808" transform="matrix(.01 0 0 .01 -219.17 55.207)" clip-rule="evenodd" fill-rule="evenodd" image-rendering="optimizeQuality" shape-rendering="geometricPrecision" text-rendering="geometricPrecision"><g id="Слой_x0020_1"><path id="path3781" d="M156.97 242.94h6217.69v1985.15c-10.5-2-21.31-3.04-32.31-3.04-65.09 0-123.4 36.26-152.21 94.61l-184.54 373.92-412.63 59.96c-64.41 9.36-116.91 53.61-137.03 115.51-20.12 61.89-3.67 128.57 42.95 174.02l298.6 291.07-70.49 410.95c-11 64.16 14.85 127.76 67.51 166.03 52.65 38.26 121.11 43.21 178.75 12.93l369.08-194.03 32.32 16.99v1906.06l-666.67.01c-20.54 0-40.6 2.06-60 5.97l169.77-855.51c24.89-125.46 27.72-248.79 8.4-366.57-32.13-195.8-135.55-429.19-445.85-429.19-44.25 0-82.05 31.91-89.46 75.54l-59.56 350.44c-23.53 138.45-55.82 270.33-95.94 391.98-111.1 336.88-251.29 509.55-500 615.93-119.5 51.1-216.53 94.81-255.32 112.43l-374.33-.01v-72.54c0-50.14-40.62-90.75-90.75-90.75h-614.31v-97.91c0-50.13-40.61-90.74-90.74-90.74H1684.43c-50.13 0-90.74 40.61-90.74 90.74v538.49c0 50.13 40.63 90.75 90.74 90.75 50.14 0 90.75-40.63 90.75-90.75v-447.74h1343.98v1076.98H1775.2v-326.74c0-50.14-40.62-90.75-90.75-90.75s-90.75 40.62-90.75 90.75v326.74H156.97zm6217.69 5591.67v296l-666.67-.01c-67.58 0-122.57-54.97-122.57-122.56v-48.78c5.93-22.03 11.09-42.7 15.54-61.65 20.97-37.54 61.06-63 107.03-63zm0 477.46v148.55h-789.25v-25.98c0-67.58 54.97-122.57 122.56-122.57zm-970.73 148.55h-45.22c16.93-23.59 33.3-48.34 49.09-74.25-2.5 15.73-3.87 31.86-3.87 48.3zm-283.79 0H4005.71v-725.01h394.05a90.74 90.74 0 0 0 37.92-8.3c1.14-.52 116.34-53.44 269.05-118.76 298.99-127.86 473.1-338.18 601.01-725.97 42.95-130.26 77.42-271.02 102.48-418.4l45.38-266.96c106.48 24.83 165.19 109.25 191.43 269.16 15.79 96.24 13.34 197.81-7.32 301.85l-193.48 974.98c-.36 1.81-.68 3.66-.92 5.5-.22 1.7-5.12 35.78-17.13 89.48-12.1 28.35-19.96 58.9-22.91 90.87-43.74 156.16-129.36 380.12-285.13 531.56zm-1295.92 0h-523.57v-888.31h523.57v72.54zm2550.44-3973.79v1063.22c-10.67-2.07-21.5-3.1-32.32-3.1-27.13 0-54.25 6.5-78.99 19.49l-353.45 185.82 67.5-393.57a169.642 169.642 0 0 0-48.82-150.24l-285.94-278.73 395.15-57.43a169.679 169.679 0 0 0 127.82-92.86l176.74-358.07zm-1051.38-283.29c-20.12-61.89-72.63-106.14-137.02-115.5l-412.65-59.96-184.53-373.91c-28.8-58.36-87.12-94.61-152.21-94.61s-123.4 36.25-152.21 94.61l-184.54 373.92-412.63 59.97c-64.41 9.34-116.91 53.59-137.04 115.49-20.12 61.89-3.67 128.57 42.95 174.04l298.61 291.06-70.49 410.95c-11.01 64.15 14.87 127.76 67.5 166.03 52.66 38.26 121.13 43.2 178.77 12.93l369.06-194.03 369.08 194.03c25.05 13.18 52.16 19.68 79.14 19.68 35.05 0 69.86-10.99 99.63-32.6 52.65-38.26 78.52-101.87 67.5-166.02l-70.49-410.96 298.63-291.07c46.61-45.47 63.05-112.15 42.94-174.05zm-472.65 339.43c-40 38.98-58.25 95.13-48.84 150.24l67.51 393.57-353.47-185.82c-49.44-26-108.51-26-157.96 0l-353.46 185.82 67.51-393.57c9.45-55.08-8.81-111.24-48.81-150.24l-285.96-278.73 395.18-57.43a169.662 169.662 0 0 0 127.82-92.86l176.72-358.09 176.72 358.1c24.74 50.12 72.53 84.83 127.81 92.85l395.18 57.43zm-1436.35 326.06c-20.12-61.88-72.62-106.13-137.02-115.49l-412.64-59.97-184.54-373.92c-28.81-58.36-87.14-94.61-152.23-94.61-65.07 0-123.39 36.25-152.21 94.61l-184.5 373.92-412.63 59.97c-64.41 9.34-116.92 53.6-137.04 115.49-20.12 61.89-3.67 128.57 42.95 174.04l298.6 291.05-70.49 410.96c-11 64.15 14.88 127.76 67.51 166.03 29.76 21.62 64.57 32.59 99.63 32.59 26.97 0 54.08-6.51 79.15-19.68l369.06-194.03 369.08 194.03c57.61 30.29 126.09 25.34 178.74-12.91 52.65-38.25 78.53-101.88 67.53-166.03l-70.49-410.96 298.59-291.07c46.62-45.44 63.07-112.12 42.95-174.02zm-472.67 339.42c-40.01 39.01-58.27 95.16-48.82 150.24l67.5 393.57-353.45-185.8a169.698 169.698 0 0 0-157.99-.02l-353.45 185.82 67.49-393.57c9.45-55.05-8.79-111.21-48.8-150.24l-285.96-278.73 395.2-57.43a169.662 169.662 0 0 0 127.82-92.86l176.71-358.1 176.71 358.08a169.618 169.618 0 0 0 127.81 92.88l395.17 57.43z" class="fil0" fill="#c9bfcd"></path><g id="_1269117602848"><g id="g3785"><circle id="circle3783" r="144.49" cy="7144.06" cx="2728.1" class="fil0" fill="#c9bfcd"></circle></g></g><path id="path3788" d="M6914.28 6172.04c29.24-46.69 46.21-101.82 46.21-160.86v-50.88c0-167.67-136.4-304.06-304.06-304.06h-281.77v181.54h281.77v-.02c67.58 0 122.57 54.98 122.57 122.57v50.88c0 67.58-54.98 122.57-122.57 122.57h-281.77v181.46h392.11c67.58 0 122.57 54.98 122.57 122.57v50.88c.01 67.58-54.97 122.57-122.55 122.57l-135.8-.01h-919.92c-67.58 0-122.57-54.98-122.57-122.56v-28.07h-181.48v28.1c0 86.83 36.64 165.21 95.2 220.67-58.82 59.54-95.2 141.29-95.2 231.39 0 93.9 39.53 178.68 102.76 238.74-63.24 60.08-102.77 144.85-102.77 238.76 0 52.46 12.39 102.08 34.31 146.16h-295.07c-169.18-.03-334.78-58.66-466.3-165.13l-220-178.09a90.73 90.73 0 0 0-57.1-20.22l-394.05-.01v-260.23c0-50.13-40.62-90.74-90.75-90.74s-90.75 40.62-90.75 90.74v393.53h-523.56v-873.67h-181.49v1062.32H1778.29V6460.62h-181.5v1153.07c0 50.13 40.63 90.74 90.75 90.74h1525.47c50.13 0 90.74-40.61 90.74-90.74v-97.91h614.31c50.14 0 90.75-40.61 90.75-90.75v-42.53h361.92l195.01 157.87c163.71 132.54 369.87 205.53 580.52 205.53h552.87c.64 0 1.26-.08 1.88-.09 11.67 1.24 23.49 1.93 35.48 1.93h648.26c181.7 0 329.51-147.81 329.51-329.5 0-54.52-13.4-105.96-36.95-151.32 159.82-22.6 283.16-160.22 283.16-326.18 0-67.12-20.23-129.6-54.81-181.72 97.98-50.54 165.16-152.72 165.16-270.35v-50.87c.02-114.15-63.24-213.76-156.54-265.76zM3827.3 6460.62v177.66c0 50.13 40.63 90.74 90.75 90.74 50.13 0 90.75-40.61 90.75-90.74v-177.66zm1299.12 0c-100.67 99.14-230.91 168.05-398.53 168.05-50.12 0-90.75 40.61-90.75 90.75 0 50.13 40.63 90.74 90.75 90.74 255.66 0 472.59-120.1 636.16-349.54zm1258.35 1105.63h-648.25c-81.6 0-147.99-66.39-147.99-147.99 0-81.61 66.39-148.01 147.99-148.01h648.25c81.6 0 148.01 66.39 148.01 148-.01 81.61-66.41 148-148.01 148zM6631 7088.76h-894.47c-81.6 0-147.99-66.4-147.99-148s66.39-147.99 147.99-147.99h894.49c81.6 0 147.99 66.39 147.99 147.99-.01 81.59-66.4 148-148.01 148z" class="fil0" fill="#c9bfcd"></path><path id="path3790" d="M7231.85 2872.21c-20.13-61.88-72.63-106.13-137.03-115.49l-412.64-59.97-184.53-373.92c-24.42-49.46-70.02-83.04-122.99-92.13v253.03l147.5 298.9c24.74 50.12 72.53 84.81 127.81 92.85l395.18 57.43-285.98 278.73c-39.98 39-58.24 95.13-48.8 150.22l67.51 393.57-353.47-185.82a169.73 169.73 0 0 0-49.75-16.96v195.91l339.84 178.66c25.05 13.18 52.16 19.67 79.15 19.67 35.05 0 69.87-10.98 99.62-32.59 52.65-38.26 78.52-101.87 67.51-166.02l-70.49-410.96 298.62-291.06c46.59-45.48 63.06-112.16 42.94-174.05z" class="fil0" fill="#c9bfcd"></path></g></g></g></g></g></g></svg><svg width="17" height="24" viewBox="0 0 17 24" id="location" y="7966"><path d="M12.8 8.271c0 2.5-2.03 4.53-4.532 4.53A4.537 4.537 0 0 1 3.73 8.27a4.542 4.542 0 0 1 4.538-4.537A4.539 4.539 0 0 1 12.8 8.271zM8.269 24c2.652-2.266 8.27-11.164 8.27-15.729 0-4.558-3.71-8.27-8.27-8.27C3.709.003.002 3.714.002 8.272c0 2.06 1.102 5.237 3.023 8.717C4.752 20.12 6.81 22.871 8.268 24z"></path></svg><svg width="19" height="33" viewBox="0 0 19 33" id="login" y="7990"><path class="cls-1" d="M16.71 28.7h-5.16v-1.641h3.3a2.151 2.151 0 1 0 0-4.293h-3.29v-5.7a9.374 9.374 0 0 0 4.25-2.272 8.273 8.273 0 0 0 .01-12.255 9.721 9.721 0 0 0-13.1 0 8.272 8.272 0 0 0-.01 12.255 9.4 9.4 0 0 0 4.26 2.27L6.96 30.85a2.064 2.064 0 0 0 .68 1.518 2.111 2.111 0 0 0 .33.262 2.422 2.422 0 0 0 1.29.366h7.45a2.151 2.151 0 1 0 0-4.296zM5.96 11.76a4.174 4.174 0 0 1 0-6.184 4.905 4.905 0 0 1 6.61 0 4.174 4.174 0 0 1 0 6.184 4.9 4.9 0 0 1-6.61 0z"></path></svg><svg viewBox="0 0 451 451" width="451" height="451" id="magnifying-glass" y="8023"><path d="M447.05 428l-109.6-109.6c29.4-33.8 47.2-77.9 47.2-126.1C384.65 86.2 298.35 0 192.35 0 86.25 0 .05 86.3.05 192.3s86.3 192.3 192.3 192.3c48.2 0 92.3-17.8 126.1-47.2L428.05 447c2.6 2.6 6.1 4 9.5 4s6.9-1.3 9.5-4c5.2-5.2 5.2-13.8 0-19zM26.95 192.3c0-91.2 74.2-165.3 165.3-165.3 91.2 0 165.3 74.2 165.3 165.3s-74.1 165.4-165.3 165.4c-91.1 0-165.3-74.2-165.3-165.4z"></path></svg><svg viewBox="0 0 483.3 483.3" width="483.3" height="483.3" id="mail" y="8474"><path d="M424.3 57.75H59.1c-32.6 0-59.1 26.5-59.1 59.1v249.6c0 32.6 26.5 59.1 59.1 59.1h365.1c32.6 0 59.1-26.5 59.1-59.1v-249.5c.1-32.6-26.4-59.2-59-59.2zm32.1 308.7c0 17.7-14.4 32.1-32.1 32.1H59.1c-17.7 0-32.1-14.4-32.1-32.1v-249.5c0-17.7 14.4-32.1 32.1-32.1h365.1c17.7 0 32.1 14.4 32.1 32.1v249.5h.1z"></path><path d="M304.8 238.55l118.2-106c5.5-5 6-13.5 1-19.1-5-5.5-13.5-6-19.1-1l-163 146.3-31.8-28.4c-.1-.1-.2-.2-.2-.3-.7-.7-1.4-1.3-2.2-1.9L78.3 112.35c-5.6-5-14.1-4.5-19.1 1.1-5 5.6-4.5 14.1 1.1 19.1l119.6 106.9-119.1 111.5c-5.4 5.1-5.7 13.6-.6 19.1 2.7 2.8 6.3 4.3 9.9 4.3 3.3 0 6.6-1.2 9.2-3.6l120.9-113.1 32.8 29.3c2.6 2.3 5.8 3.4 9 3.4s6.5-1.2 9-3.5l33.7-30.2 120.2 114.2c2.6 2.5 6 3.7 9.3 3.7 3.6 0 7.1-1.4 9.8-4.2 5.1-5.4 4.9-14-.5-19.1l-118.7-112.7z"></path></svg><svg width="459" height="459" viewBox="0 0 459 459" id="menu" y="8958"><path d="M0 382.5h459v-51H0v51zM0 255h459v-51H0v51zM0 76.5v51h459v-51H0z"></path></svg><svg width="16" height="2" viewBox="0 0 16 2" id="minus" y="9417"><defs><path id="a" d="M1130 1198v-2h16v2z"></path></defs><use xlink:href="#a" transform="translate(-1130 -1196)"></use></svg><svg width="274.178" height="282.404" viewBox="0 0 72.543037 74.719406" id="paint--color" y="9419"><defs id="defs3840"><style id="style3848">.str0,.str1{stroke:#c9bfcd;stroke-width:200;stroke-miterlimit:22.9256}.str1{stroke-width:20}.fil1{fill:none}.fil0{fill:#c9bfcd}</style></defs><g id="layer1" transform="translate(217.7 -87.283)"><g id="g3899" transform="matrix(.01 0 0 .01 -217.717 87.136)" clip-rule="evenodd" fill-rule="evenodd" image-rendering="optimizeQuality" shape-rendering="geometricPrecision" text-rendering="geometricPrecision"><g id="Слой_x0020_1"><path id="path3853" d="M1.67 14.73h6195.16v2585.93L4889.91 4126.07v-388.06s-85.22-1198.27-446.82-1167.41c-361.6 30.86-465.99 1185.05-465.99 1185.05v1137.71l-255.77 4.41 8.81-2279.83 379.24-745.25-820.21-1331.74-806.98 1300.87 330.73 789.34 4.41 2015.25-405.7 4.41s-22.05-339.54-4.41-992.19c406.71-568.89 74.97-1023.06-13.23-1142.12-88.2-119.06-582.08-449.79-582.08-449.79s-361.6 445.38-476.25 767.29c-114.65 321.91 141.12 829.03 141.12 829.03l.01 987.82-555.68 2.18-6.6 1547.32h200.64l13.26-1346.68H3161.3l291.04 242.53h1287.64l308.68-238.12 1148.17-13.1v1364.89H1.67zm6195.16 2877.09v1754.6h-58.96c-.87 0-6.94-334.65-5.63-573.85 4.67-200.17-47.87-282.58-216.17-128.25-142.42 162.7-585.18 710.92-585.18 710.92h-370.42l-66.15 52.92v-282.23zm-2900.46-959.2c40.18 0 72.76 32.58 72.76 72.76 0 40.18-32.58 72.76-72.76 72.76-40.18 0-72.76-32.58-72.76-72.76 0-40.18 32.58-72.76 72.76-72.76zm-331.43 533.31l-253.56-608.54 575.48-930.46 588.7 961.33-293.25 579.88-185.21-2.21-2.21-200.64s185.49-34.21 183.06-269c-3.78-364.61-542.61-371.73-558.55 6.49-9.19 218.15 177.06 258.1 177.06 258.1l2.2 211.67zM5595.38 4648.2l337.44-3.84 2.11-423.91zM4340.81 3029.83l194.03-2.21-90.4-242.54zm-147.73 635l471.84-4.41-77.17-432.15-304.27 6.61zm-19.84 202.82h518.15v1029.67h-518.15zM3018.4 3118.39h489.48v1530.18l7.74 238.23-284.43-238.23H3018.4zm0-447.59h518.14v251.36H3018.4zM1671.27 4156.88h526.96v496.09h-526.96zm-2.21-423.34h526.97v218.28h-526.97zm-76-987.12c-85.52 306.07-147.98 421.81 46.3 787.15l600.82-1.93s133.4-207.56 122.38-260.46c-33.57-161.08-239.3-215.8-428.11-255.08-289.05-60.14-343.81-286.58-341.39-269.68zm254.65-406.8l-137.81 187.42s34.18 249.15 281.13 285.53c246.95 36.38 377.04 116.88 394.67 153.24 9.48 19.57-35.67-185.17-183.2-357.02-126.55-147.4-354.79-269.17-354.79-269.17z" class="fil0" fill="#c9bfcd"></path><path id="polyline3855" class="fil1 str0" fill="none" stroke="#c9bfcd" stroke-width="200" stroke-miterlimit="22.926" d="M6196.83 2743.72l501.61-604.59 17.64 2592.93"></path><path id="polyline3857" class="fil1 str0" fill="none" stroke="#c9bfcd" stroke-width="200" stroke-miterlimit="22.926" d="M6196.83 4763.52l955.84 1.55-5.51 2610.6H1005.5l-6.67-1165.79"></path><path id="line3859" class="fil1 str0" fill="none" stroke="#c9bfcd" stroke-width="200" stroke-miterlimit="22.926" d="M6357.61 2935.07l316.24-2.15"></path><path id="line3861" class="fil1 str0" fill="none" stroke="#c9bfcd" stroke-width="200" stroke-miterlimit="22.926" d="M6359.54 3393.76l316.24-2.15"></path><path id="line3863" class="fil1 str0" fill="none" stroke="#c9bfcd" stroke-width="200" stroke-miterlimit="22.926" d="M6359.6 3843.99l316.24-2.15"></path><path id="line3865" class="fil1 str0" fill="none" stroke="#c9bfcd" stroke-width="200" stroke-miterlimit="22.926" d="M6368.42 4320.24l316.24-2.15"></path><path id="polygon3867" class="fil1 str1" fill="none" stroke="#c9bfcd" stroke-width="20" stroke-miterlimit="22.926" d="M7040.9 7284.86l19.85-2414.33h-863.92v-214.59l404.22-1.98-.84-231.54-238.93.6 1.23-204.01h239.18l-.24-276.14-239.24 1.57-.79-199.15 239.2-2.48.03-249.74H6361.7l.41-198.46 238.95-1.63 1.68-256.31h-241.43v-200.5l238.13-2.9.83-419.18-411.4 482.93 7.96-299.39 592.71-726.91L6816 4665.4l423.34-3.31 6.61 2814.56-6336.77-13.2-6.3-1253.57h200.64l4.1 1061.75z"></path><path id="polygon3869" class="fil0" fill="#c9bfcd" d="M1778.16 7029.7v-211.54h-201.75l.03-449.73-191.96 1.86.16 656.63z"></path><path id="polygon3871" class="fil0" fill="#c9bfcd" d="M2039.65 6828.69v199.55h199.55v-199.55z"></path><path id="polygon3873" class="fil0" fill="#c9bfcd" d="M2508.18 6829.79v199.55h199.55v-199.55z"></path><path id="polygon3875" class="fil0" fill="#c9bfcd" d="M2960.18 6829.79v199.55h199.55v-199.55z"></path></g></g></g></svg><svg viewBox="0 0 473.806 473.806" width="473.806" height="473.806" id="phone-call" y="9702"><path d="M374.456 293.506c-9.7-10.1-21.4-15.5-33.8-15.5-12.3 0-24.1 5.3-34.2 15.4l-31.6 31.5c-2.6-1.4-5.2-2.7-7.7-4-3.6-1.8-7-3.5-9.9-5.3-29.6-18.8-56.5-43.3-82.3-75-12.5-15.8-20.9-29.1-27-42.6 8.2-7.5 15.8-15.3 23.2-22.8 2.8-2.8 5.6-5.7 8.4-8.5 21-21 21-48.2 0-69.2l-27.3-27.3c-3.1-3.1-6.3-6.3-9.3-9.5-6-6.2-12.3-12.6-18.8-18.6-9.7-9.6-21.3-14.7-33.5-14.7s-24 5.1-34 14.7l-.2.2-34 34.3c-12.8 12.8-20.1 28.4-21.7 46.5-2.4 29.2 6.2 56.4 12.8 74.2 16.2 43.7 40.4 84.2 76.5 127.6 43.8 52.3 96.5 93.6 156.7 122.7 23 10.9 53.7 23.8 88 26 2.1.1 4.3.2 6.3.2 23.1 0 42.5-8.3 57.7-24.8.1-.2.3-.3.4-.5 5.2-6.3 11.2-12 17.5-18.1 4.3-4.1 8.7-8.4 13-12.9 9.9-10.3 15.1-22.3 15.1-34.6 0-12.4-5.3-24.3-15.4-34.3l-54.9-55.1zm35.8 105.3c-.1 0-.1.1 0 0-3.9 4.2-7.9 8-12.2 12.2-6.5 6.2-13.1 12.7-19.3 20-10.1 10.8-22 15.9-37.6 15.9-1.5 0-3.1 0-4.6-.1-29.7-1.9-57.3-13.5-78-23.4-56.6-27.4-106.3-66.3-147.6-115.6-34.1-41.1-56.9-79.1-72-119.9-9.3-24.9-12.7-44.3-11.2-62.6 1-11.7 5.5-21.4 13.8-29.7l34.1-34.1c4.9-4.6 10.1-7.1 15.2-7.1 6.3 0 11.4 3.8 14.6 7l.3.3c6.1 5.7 11.9 11.6 18 17.9 3.1 3.2 6.3 6.4 9.5 9.7l27.3 27.3c10.6 10.6 10.6 20.4 0 31-2.9 2.9-5.7 5.8-8.6 8.6-8.4 8.6-16.4 16.6-25.1 24.4-.2.2-.4.3-.5.5-8.6 8.6-7 17-5.2 22.7l.3.9c7.1 17.2 17.1 33.4 32.3 52.7l.1.1c27.6 34 56.7 60.5 88.8 80.8 4.1 2.6 8.3 4.7 12.3 6.7 3.6 1.8 7 3.5 9.9 5.3.4.2.8.5 1.2.7 3.4 1.7 6.6 2.5 9.9 2.5 8.3 0 13.5-5.2 15.2-6.9l34.2-34.2c3.4-3.4 8.8-7.5 15.1-7.5 6.2 0 11.3 3.9 14.4 7.3l.2.2 55.1 55.1c10.3 10.2 10.3 20.7.1 31.3zm-154.2-286.1c26.2 4.4 50 16.8 69 35.8s31.3 42.8 35.8 69c1.1 6.6 6.8 11.2 13.3 11.2.8 0 1.5-.1 2.3-.2 7.4-1.2 12.3-8.2 11.1-15.6-5.4-31.7-20.4-60.6-43.3-83.5s-51.8-37.9-83.5-43.3c-7.4-1.2-14.3 3.7-15.6 11s3.5 14.4 10.9 15.6zm217.2 96.3c-8.9-52.2-33.5-99.7-71.3-137.5s-85.3-62.4-137.5-71.3c-7.3-1.3-14.2 3.7-15.5 11-1.2 7.4 3.7 14.3 11.1 15.6 46.6 7.9 89.1 30 122.9 63.7 33.8 33.8 55.8 76.3 63.7 122.9 1.1 6.6 6.8 11.2 13.3 11.2.8 0 1.5-.1 2.3-.2 7.3-1.1 12.3-8.1 11-15.4z"></path></svg><svg viewBox="0 0 477 477" width="477" height="477" id="placeholder" y="10176"><path d="M238.4 0C133 0 47.2 85.8 47.2 191.2c0 12 1.1 24.1 3.4 35.9.1.7.5 2.8 1.3 6.4 2.9 12.9 7.2 25.6 12.8 37.7 20.6 48.5 65.9 123 165.3 202.8 2.5 2 5.5 3 8.5 3s6-1 8.5-3c99.3-79.8 144.7-154.3 165.3-202.8 5.6-12.1 9.9-24.7 12.8-37.7.8-3.6 1.2-5.7 1.3-6.4 2.2-11.8 3.4-23.9 3.4-35.9C429.6 85.8 343.8 0 238.4 0zm161.2 222.4c0 .2-.1.4-.1.6-.1.5-.4 2-.9 4.3v.2c-2.5 11.2-6.2 22.1-11.1 32.6-.1.1-.1.3-.2.4-18.7 44.3-59.7 111.9-148.9 185.6-89.2-73.7-130.2-141.3-148.9-185.6-.1-.1-.1-.3-.2-.4-4.8-10.4-8.5-21.4-11.1-32.6v-.2c-.6-2.3-.8-3.8-.9-4.3 0-.2-.1-.4-.1-.7-2-10.3-3-20.7-3-31.2 0-90.5 73.7-164.2 164.2-164.2s164.2 73.7 164.2 164.2c0 10.6-1 21.1-3 31.3z"></path><path d="M238.4 71.9c-66.9 0-121.4 54.5-121.4 121.4s54.5 121.4 121.4 121.4 121.4-54.5 121.4-121.4S305.3 71.9 238.4 71.9zm0 215.8c-52.1 0-94.4-42.4-94.4-94.4s42.4-94.4 94.4-94.4 94.4 42.4 94.4 94.4-42.3 94.4-94.4 94.4z"></path></svg><svg width="14" height="14" viewBox="0 0 14 14" id="plus" y="10653"><path data-name="Union 1" d="M6.001 14V8h-6V6h6V0h2v6h6v2h-6v6z"></path></svg><svg width="302.171" height="282.749" viewBox="0 0 79.949501 74.810699" id="project--color" y="10667"><defs id="defs3840"><style id="style3901">.fil0{fill:#c9bfcd}</style></defs><g id="layer1" transform="translate(15.028 -81.19)"><g id="g3933" transform="matrix(.01 0 0 .01 -14.917 81.232)" clip-rule="evenodd" fill-rule="evenodd" image-rendering="optimizeQuality" shape-rendering="geometricPrecision" text-rendering="geometricPrecision"><g id="Слой_x0020_1"><path id="path3906" d="M-11.17-4.21h6188.79v2117.43H4329.3c-53.75 0-97.36 43.61-97.36 97.36 0 53.79 43.61 97.35 97.36 97.35h1848.32v3681.95H1532.95V2409.35c0-55.93 45.47-101.42 101.36-101.42h1433.82c53.74 0 97.35-43.55 97.35-97.35 0-53.75-43.61-97.35-97.35-97.35l-1433.82-.01c-163.28 0-296.08 132.86-296.08 296.12v3775.24H-11.17zm3503.26 2312.14h413.25c53.75 0 97.35-43.55 97.35-97.35 0-53.75-43.6-97.35-97.35-97.35l-413.25-.01c-53.76 0-97.37 43.61-97.37 97.36 0 53.79 43.61 97.35 97.37 97.35zm-1551.87 540.64c-53.75 0-97.36 43.56-97.36 97.35v2583.75c0 53.74 43.61 97.35 97.36 97.35h758.15c53.76 0 97.37-43.6 97.37-97.35V2945.93c0-53.8-43.61-97.36-97.37-97.36zm660.8 194.71v117.54h-563.45v-117.54zm-563.45 2389.03V3355.53h563.45v2076.78zm1203.82-714.81c0 156.53 127.43 283.91 283.96 283.91 71.29 0 136.45-26.42 186.35-69.98l669.12 370.72c-2.23 14.35-3.45 29.1-3.45 44.06 0 156.58 127.37 283.95 283.96 283.95 156.52 0 283.9-127.37 283.9-283.95 0-14.96-1.17-29.71-3.39-44.06l669.07-370.72c49.9 43.51 115.09 69.98 186.35 69.98 156.57 0 283.95-127.38 283.95-283.96 0-122.35-77.84-226.91-186.6-266.71v-603.06c108.76-39.85 186.6-144.36 186.6-266.76 0-156.59-127.38-283.96-283.95-283.96-71.1 0-136.1 26.32-185.95 69.62l-669.53-370.92c2.28-14.35 3.45-29.05 3.45-44.06 0-156.58-127.38-283.95-283.95-283.95-156.54 0-283.91 127.37-283.91 283.95 0 14.96 1.17 29.71 3.45 44.06l-669.53 370.92c-49.84-43.3-114.85-69.62-185.94-69.62-156.58 0-283.96 127.37-283.96 283.96 0 122.35 77.83 226.91 186.6 266.71v603.11c-108.77 39.8-186.6 144.36-186.6 266.76zm1419.93-1481.94c71.09 0 136.1-26.32 185.94-69.67l669.54 370.97c-2.23 14.34-3.46 29.05-3.46 44.06 0 15.01 1.23 29.77 3.46 44.12l-669.54 370.91c-49.84-43.3-114.85-69.62-185.94-69.62s-136.09 26.32-185.94 69.62l-669.53-370.91c2.28-14.35 3.45-29.11 3.45-44.12 0-15.01-1.22-29.72-3.45-44.06l669.53-370.92c49.84 43.3 114.85 69.62 185.94 69.62zm852.02 1481.94c0 14.81 1.17 29.36 3.35 43.56l-669.42 370.87c-25.87-22.52-55.78-40.46-88.59-52.43v-602.49c108.77-39.81 186.61-144.37 186.61-266.77 0-15.02-1.22-29.71-3.45-44.06l669.52-370.92c25.87 22.47 55.78 40.41 88.58 52.43v603.06c-108.76 39.8-186.6 144.36-186.6 266.76zm-762.77-507.26c0 49.23-40.06 89.24-89.24 89.24-49.19 0-89.25-40.01-89.25-89.24 0-49.19 40.06-89.2 89.25-89.2 49.18 0 89.24 40.01 89.24 89.2zm-1039.28-414.99l669.53 370.92c-2.23 14.4-3.45 29.1-3.45 44.11 0 122.36 77.83 226.92 186.6 266.73v602.49c-32.8 12.02-62.72 29.96-88.59 52.43l-669.42-370.87c2.18-14.2 3.35-28.75 3.35-43.56 0-122.4-77.83-226.96-186.6-266.76v-603.05c32.8-12.02 62.73-29.97 88.58-52.44zM3525.35 4806.7c-49.19 0-89.25-40.01-89.25-89.2 0-49.23 40.06-89.24 89.25-89.24 49.23 0 89.24 40.01 89.24 89.24 0 49.19-40.01 89.2-89.24 89.2zm1135.97 628.76c-49.18 0-89.24-40.06-89.24-89.25 0-49.18 40.06-89.24 89.24-89.24 49.19 0 89.25 40.06 89.25 89.24 0 49.19-40.06 89.25-89.25 89.25zM5797.3 4806.7c-49.18 0-89.24-40.01-89.24-89.2 0-49.23 40.06-89.24 89.24-89.24 49.19 0 89.24 40.01 89.24 89.24 0 49.19-40.05 89.2-89.24 89.2zm0-1315.02c49.19 0 89.24 40.06 89.24 89.24 0 49.19-40.05 89.24-89.24 89.24-49.18 0-89.24-40.05-89.24-89.24 0-49.18 40.06-89.24 89.24-89.24zm-1135.98-629.32c117.33 0 117.33 178.48 0 178.48-49.18 0-89.24-40.06-89.24-89.24 0-49.18 40.06-89.24 89.24-89.24zm-1135.97 629.32c49.23 0 89.24 40.06 89.24 89.24 0 49.19-40.01 89.24-89.24 89.24-49.19 0-89.25-40.05-89.25-89.24 0-49.18 40.06-89.24 89.25-89.24z" class="fil0" fill="#c9bfcd"></path><g id="_1269129162992"><path id="path3908" d="M7687.65 2103.75H6177.62v194.72h1510.09c55.88 0 101.35 45.48 101.35 101.42v2964.08c0 53.75 43.61 97.36 97.37 97.36 53.79 0 97.35-43.61 97.35-97.36V2399.89c0-163.28-132.8-296.13-296.13-296.13z" class="fil0" fill="#c9bfcd"></path><path id="path3910" d="M7886.43 5690.57c-53.81 0-97.37 43.56-97.37 97.36v192.48H6177.62v102.8H1337.6v497.26c0 126.77 103.13 229.9 229.89 229.9h2359.37v471.78h-401.99c-53.76 0-97.37 43.61-97.37 97.35 0 53.8 43.61 97.36 97.37 97.36h2271.64c53.8 0 97.35-43.56 97.35-97.35 0-53.75-43.55-97.36-97.35-97.36h-401.99v-471.78h2359.35c126.77 0 229.91-103.13 229.91-229.89v-792.54c0-53.81-43.56-97.37-97.35-97.37zM5199.8 7282.15H4121.58v-471.78H5199.8zm2554.07-666.49H1567.49c-19.41 0-35.19-15.77-35.19-35.19v-405.35h6256.76v405.35c0 19.42-15.76 35.19-35.19 35.19z" class="fil0" fill="#c9bfcd"></path><path id="path3912" d="M6707.56 3895.72h758.15c53.8 0 97.36-43.56 97.36-97.35v-861.91c0-53.8-43.56-97.36-97.36-97.36h-758.15c-53.76 0-97.37 43.56-97.37 97.35v861.91c0 53.8 43.61 97.36 97.37 97.36zm97.35-194.71v-355h563.45v355zm563.45-667.2v117.54h-563.45v-117.54z" class="fil0" fill="#c9bfcd"></path><path id="path3914" d="M6610.19 5178.54c0 53.8 43.61 97.36 97.37 97.36h758.15c53.8 0 97.36-43.55 97.36-97.36v-861.9c0-53.8-43.56-97.36-97.36-97.36l-758.15-.01c-53.76 0-97.37 43.56-97.37 97.37zm194.72-97.36v-354.99h563.45v354.99zm563.45-667.19v117.49h-563.45v-117.49z" class="fil0" fill="#c9bfcd"></path></g></g></g></g></svg><svg width="24" height="22" viewBox="0 0 24 22" id="repeat" y="10950"><defs><path id="a" d="M1515.477 514.514c-1.232 2.532-3.395 4.441-6.088 5.377a10.878 10.878 0 0 1-3.577.604c-2.96 0-5.816-1.219-7.835-3.344a1.247 1.247 0 0 1 .068-1.788 1.287 1.287 0 0 1 1.794.066 8.264 8.264 0 0 0 5.974 2.55 8.29 8.29 0 0 0 2.73-.461c3.245-1.128 5.425-4.153 5.425-7.529 0-.907-.158-1.801-.469-2.66-1.15-3.18-4.24-5.316-7.692-5.316a8.25 8.25 0 0 0-2.72.461c-1.697.589-3.107 1.671-4.07 3.104l2.508-.872a1.276 1.276 0 0 1 1.623.762 1.26 1.26 0 0 1-.778 1.612l-5.358 1.864a1.285 1.285 0 0 1-.97-.05 1.265 1.265 0 0 1-.653-.71l-1.8-4.98a1.238 1.238 0 0 1-.076-.426c0-.533.343-1.01.854-1.186a1.284 1.284 0 0 1 1.621.764l.749 2.073c1.27-2.007 3.19-3.524 5.503-4.328 1.15-.401 2.35-.604 3.567-.604 4.526 0 8.582 2.806 10.095 6.984.412 1.142.62 2.326.62 3.52 0 1.567-.351 3.085-1.045 4.513z"></path></defs><use xlink:href="#a" transform="translate(-1493 -499)"></use></svg><svg width="23" height="23" viewBox="0 0 23 23" id="search" y="10972"><path d="M12.989 17.206a7.369 7.369 0 0 1-5.184-2.153l-.002-.002c-2.86-2.865-2.857-7.523.008-10.384a7.293 7.293 0 0 1 5.19-2.148h.004a7.291 7.291 0 0 1 5.19 2.155c2.862 2.865 2.859 7.524-.005 10.384A7.298 7.298 0 0 1 13 17.206zm-11.86 5.649c.29 0 .58-.111.8-.331L7.052 17.4a9.652 9.652 0 0 0 5.936 2.064H13a9.54 9.54 0 0 0 6.785-2.808c3.747-3.742 3.75-9.834.008-13.58A9.54 9.54 0 0 0 13.006.26H13a9.54 9.54 0 0 0-6.786 2.808c-3.475 3.472-3.73 8.967-.76 12.735L.331 20.926a1.127 1.127 0 0 0 0 1.598c.221.22.51.33.799.33z"></path></svg><svg viewBox="0 0 481.6 481.6" width="481.6" height="481.6" id="share" y="10995"><path d="M381.6 309.4c-27.7 0-52.4 13.2-68.2 33.6l-132.3-73.9c3.1-8.9 4.8-18.5 4.8-28.4 0-10-1.7-19.5-4.9-28.5l132.2-73.8c15.7 20.5 40.5 33.8 68.3 33.8 47.4 0 86.1-38.6 86.1-86.1S429 0 381.5 0s-86.1 38.6-86.1 86.1c0 10 1.7 19.6 4.9 28.5l-132.1 73.8c-15.7-20.6-40.5-33.8-68.3-33.8-47.4 0-86.1 38.6-86.1 86.1s38.7 86.1 86.2 86.1c27.8 0 52.6-13.3 68.4-33.9l132.2 73.9c-3.2 9-5 18.7-5 28.7 0 47.4 38.6 86.1 86.1 86.1s86.1-38.6 86.1-86.1-38.7-86.1-86.2-86.1zm0-282.3c32.6 0 59.1 26.5 59.1 59.1s-26.5 59.1-59.1 59.1-59.1-26.5-59.1-59.1 26.6-59.1 59.1-59.1zM100 299.8c-32.6 0-59.1-26.5-59.1-59.1s26.5-59.1 59.1-59.1 59.1 26.5 59.1 59.1-26.6 59.1-59.1 59.1zm281.6 154.7c-32.6 0-59.1-26.5-59.1-59.1s26.5-59.1 59.1-59.1 59.1 26.5 59.1 59.1-26.5 59.1-59.1 59.1z"></path></svg><svg width="43" height="43" viewBox="0 0 43 43" id="smile-good" y="11477"><defs><path id="a" d="M928 1166c0 5.34-2.08 10.36-5.86 14.14A19.87 19.87 0 0 1 908 1186a19.87 19.87 0 0 1-14.14-5.86A19.87 19.87 0 0 1 888 1166c0-5.34 2.08-10.37 5.86-14.14A19.87 19.87 0 0 1 908 1146c5.34 0 10.36 2.08 14.14 5.86A19.87 19.87 0 0 1 928 1166zm-2.47 0c0-9.66-7.87-17.53-17.53-17.53a17.55 17.55 0 0 0-17.53 17.53c0 9.66 7.87 17.52 17.53 17.52s17.53-7.86 17.53-17.52zm-14.15-3.8a2.89 2.89 0 1 1 5.78.01 2.89 2.89 0 0 1-5.78 0zm-12.54 0a2.89 2.89 0 1 1 5.78.01 2.89 2.89 0 0 1-5.78 0zm17.87 7l2.32.86a11.8 11.8 0 0 1-11.03 7.7c-4.9 0-9.33-3.1-11.03-7.7l2.32-.86a9.32 9.32 0 0 0 8.71 6.08 9.32 9.32 0 0 0 8.71-6.08z"></path></defs><use xlink:href="#a" transform="translate(-886 -1144)"></use></svg><svg viewBox="0 0 512 512" width="512" height="512" id="soc-facebook" y="11520"><path d="M134.941 272.691h56.123v231.051a8.256 8.256 0 0 0 8.258 8.258h95.159a8.256 8.256 0 0 0 8.258-8.258V273.78h64.519a8.26 8.26 0 0 0 8.204-7.315l9.799-85.061a8.259 8.259 0 0 0-8.202-9.203h-74.316V118.88c0-16.073 8.654-24.224 25.726-24.224h48.59a8.258 8.258 0 0 0 8.258-8.258V8.319a8.256 8.256 0 0 0-8.258-8.258h-66.965A65.863 65.863 0 0 0 307.027 0c-11.619 0-52.006 2.281-83.909 31.63-35.348 32.524-30.434 71.465-29.26 78.217v62.352H134.94a8.256 8.256 0 0 0-8.258 8.258v83.975a8.26 8.26 0 0 0 8.259 8.259z"></path></svg><svg width="90" height="90" viewBox="0 0 90 90" id="soc-facebook-box" y="12032"><path d="M90 15.001C90 7.119 82.884 0 75 0H15C7.116 0 0 7.119 0 15.001v59.998C0 82.881 7.116 90 15.001 90H45V56H34V41h11v-5.844C45 25.077 52.568 16 61.875 16H74v15H61.875C60.548 31 59 32.611 59 35.024V41h15v15H59v34h16c7.884 0 15-7.119 15-15.001V15.001z"></path></svg><svg width="96.669" height="96.669" viewBox="0 0 96.669 96.669" id="soc-google" y="12122"><path d="M50.91 55.189l-4.533-3.522c-1.38-1.144-3.27-2.656-3.27-5.422 0-2.778 1.889-4.544 3.527-6.18 5.279-4.157 10.557-8.581 10.557-17.903 0-9.586-6.031-14.629-8.923-17.022h7.795L64.244 0H39.459C32.658 0 22.856 1.608 15.68 7.533c-5.408 4.666-8.046 11.099-8.046 16.892 0 9.831 7.548 19.798 20.88 19.798 1.259 0 2.636-.124 4.022-.252-.623 1.515-1.252 2.777-1.252 4.917 0 3.905 2.006 6.299 3.774 8.567-5.663.39-16.237 1.018-24.033 5.809-7.424 4.415-9.684 10.84-9.684 15.377 0 9.334 8.8 18.028 27.045 18.028 21.636 0 33.089-11.971 33.089-23.823.002-8.707-5.028-12.992-10.565-17.657zM34.431 40.691c-10.824 0-15.727-13.992-15.727-22.434 0-3.288.623-6.682 2.763-9.333C23.486 6.4 27 4.762 30.281 4.762c10.434 0 15.846 14.118 15.846 23.197 0 2.271-.251 6.296-3.144 9.207-2.023 2.021-5.409 3.525-8.552 3.525zm.124 50.696c-13.46 0-22.139-6.438-22.139-15.392 0-8.949 8.048-11.978 10.816-12.979 5.281-1.777 12.076-2.024 13.21-2.024 1.258 0 1.887 0 2.889.126 9.568 6.81 13.721 10.203 13.721 16.65.001 7.805-6.417 13.619-18.497 13.619zm48.124-50.888V27.894h-6.224v12.605H63.869v6.294h12.586v12.684h6.224V46.793h12.649v-6.294z"></path></svg><svg width="430.117" height="430.117" viewBox="0 0 430.117 430.117" id="soc-in" y="12219"><path d="M430.117 261.543V420.56h-92.188V272.193c0-37.271-13.334-62.707-46.703-62.707-25.473 0-40.632 17.142-47.301 33.724-2.432 5.928-3.058 14.179-3.058 22.477V420.56h-92.219s1.242-251.285 0-277.32h92.21v39.309c-.187.294-.43.611-.606.896h.606v-.896c12.251-18.869 34.13-45.824 83.102-45.824 60.673-.001 106.157 39.636 106.157 124.818zM52.183 9.558C20.635 9.558 0 30.251 0 57.463c0 26.619 20.038 47.94 50.959 47.94h.616c32.159 0 52.159-21.317 52.159-47.94-.606-27.212-20-47.905-51.551-47.905zM5.477 420.56h92.184V143.24H5.477v277.32z"></path></svg><svg width="438.536" height="438.536" viewBox="0 0 438.536 438.536" id="soc-instagram" y="12650"><path d="M421.981 16.562C410.941 5.519 397.711 0 382.298 0H56.248C40.83 0 27.604 5.521 16.561 16.562 5.52 27.6.001 40.828.001 56.243V382.29c0 15.413 5.518 28.644 16.56 39.683 11.043 11.04 24.272 16.563 39.687 16.563h326.046c15.41 0 28.644-5.523 39.684-16.563 11.043-11.039 16.557-24.27 16.557-39.683V56.243c-.001-15.418-5.514-28.639-16.554-39.681zM157.462 158.025c17.224-16.652 37.924-24.982 62.097-24.982 24.36 0 45.153 8.33 62.381 24.982 17.228 16.655 25.837 36.785 25.837 60.386 0 23.598-8.609 43.729-25.837 60.379-17.228 16.659-38.014 24.988-62.381 24.988-24.172 0-44.87-8.336-62.097-24.988-17.228-16.652-25.841-36.781-25.841-60.379 0-23.601 8.613-43.73 25.841-60.386zm231.403 212.564c0 4.945-1.718 9.083-5.141 12.416-3.433 3.33-7.519 4.996-12.282 4.996h-305.2c-4.948 0-9.091-1.666-12.419-4.996-3.333-3.326-4.998-7.471-4.998-12.416V185.575H89.08c-3.805 11.993-5.708 24.462-5.708 37.402 0 36.553 13.322 67.715 39.969 93.511 26.65 25.786 58.721 38.685 96.217 38.685 24.744 0 47.583-5.903 68.527-17.703 20.937-11.807 37.486-27.839 49.676-48.112 12.183-20.272 18.274-42.4 18.274-66.38 0-12.94-1.91-25.406-5.715-37.402h38.547V370.59h-.002zm0-254.963c0 5.52-1.903 10.184-5.716 13.99-3.805 3.809-8.466 5.711-13.989 5.711h-49.676c-5.517 0-10.185-1.903-13.99-5.711-3.806-3.806-5.708-8.47-5.708-13.99V68.522c0-5.33 1.902-9.945 5.708-13.848 3.806-3.901 8.474-5.854 13.99-5.854h49.676c5.523 0 10.185 1.952 13.989 5.854 3.812 3.903 5.716 8.518 5.716 13.848v47.104z"></path></svg><svg width="95.481" height="95.481" viewBox="0 0 95.481 95.481" id="soc-ok" y="13089"><path d="M43.041 67.254c-7.402-.772-14.076-2.595-19.79-7.064-.709-.556-1.441-1.092-2.088-1.713-2.501-2.402-2.753-5.153-.774-7.988 1.693-2.426 4.535-3.075 7.489-1.682.572.27 1.117.607 1.639.969 10.649 7.317 25.278 7.519 35.967.329 1.059-.812 2.191-1.474 3.503-1.812 2.551-.655 4.93.282 6.299 2.514 1.564 2.549 1.544 5.037-.383 7.016-2.956 3.034-6.511 5.229-10.461 6.761-3.735 1.448-7.826 2.177-11.875 2.661.611.665.899.992 1.281 1.376 5.498 5.524 11.02 11.025 16.5 16.566 1.867 1.888 2.257 4.229 1.229 6.425-1.124 2.4-3.64 3.979-6.107 3.81-1.563-.108-2.782-.886-3.865-1.977-4.149-4.175-8.376-8.273-12.441-12.527-1.183-1.237-1.752-1.003-2.796.071-4.174 4.297-8.416 8.528-12.683 12.735-1.916 1.889-4.196 2.229-6.418 1.15-2.362-1.145-3.865-3.556-3.749-5.979.08-1.639.886-2.891 2.011-4.014 5.441-5.433 10.867-10.88 16.295-16.322.359-.362.694-.746 1.217-1.305z"></path><path d="M47.55 48.329c-13.205-.045-24.033-10.992-23.956-24.218C23.67 10.739 34.505-.037 47.84 0c13.362.036 24.087 10.967 24.02 24.478-.068 13.199-10.971 23.897-24.31 23.851zm12.001-24.186c-.023-6.567-5.253-11.795-11.807-11.801-6.609-.007-11.886 5.316-11.835 11.943.049 6.542 5.324 11.733 11.896 11.709 6.552-.023 11.768-5.285 11.746-11.851z"></path></svg><svg viewBox="0 0 300 300" width="300" height="300" id="soc-telegram" y="13185"><path d="M5.299 144.645l69.126 25.8 26.756 86.047c1.712 5.511 8.451 7.548 12.924 3.891l38.532-31.412a11.496 11.496 0 0 1 14.013-.391l69.498 50.457c4.785 3.478 11.564.856 12.764-4.926L299.823 29.22c1.31-6.316-4.896-11.585-10.91-9.259L5.218 129.402c-7.001 2.7-6.94 12.612.081 15.243zm91.57 12.066l135.098-83.207c2.428-1.491 4.926 1.792 2.841 3.726L123.313 180.87a23.112 23.112 0 0 0-7.163 13.829l-3.798 28.146c-.503 3.758-5.782 4.131-6.819.494l-14.607-51.325c-1.673-5.854.765-12.107 5.943-15.303z"></path></svg><svg viewBox="0 0 410.155 410.155" width="410.155" height="410.155" id="soc-twitter" y="13485"><path d="M403.632 74.18a162.414 162.414 0 0 1-28.28 9.537 88.177 88.177 0 0 0 23.275-37.067c1.295-4.051-3.105-7.554-6.763-5.385a163.188 163.188 0 0 1-43.235 17.862 11.02 11.02 0 0 1-2.702.336c-2.766 0-5.455-1.027-7.57-2.891-16.156-14.239-36.935-22.081-58.508-22.081-9.335 0-18.76 1.455-28.014 4.325-28.672 8.893-50.795 32.544-57.736 61.724-2.604 10.945-3.309 21.9-2.097 32.56a3.166 3.166 0 0 1-.797 2.481 3.278 3.278 0 0 1-2.753 1.091c-62.762-5.831-119.358-36.068-159.363-85.14-2.04-2.503-5.952-2.196-7.578.593-7.834 13.44-11.974 28.812-11.974 44.454 0 23.972 9.631 46.563 26.36 63.032a79.24 79.24 0 0 1-20.169-7.808c-3.06-1.7-6.825.485-6.868 3.985-.438 35.612 20.412 67.3 51.646 81.569a79.567 79.567 0 0 1-16.786-1.399c-3.446-.658-6.341 2.611-5.271 5.952 10.138 31.651 37.39 54.981 70.002 60.278-27.066 18.169-58.585 27.753-91.39 27.753l-10.227-.006c-3.151 0-5.816 2.054-6.619 5.106-.791 3.006.666 6.177 3.353 7.74 36.966 21.513 79.131 32.883 121.955 32.883 37.485 0 72.549-7.439 104.219-22.109 29.033-13.449 54.689-32.674 76.255-57.141 20.09-22.792 35.8-49.103 46.692-78.201 10.383-27.737 15.871-57.333 15.871-85.589v-1.346c-.001-4.537 2.051-8.806 5.631-11.712a174.776 174.776 0 0 0 35.16-38.591c2.573-3.849-1.485-8.673-5.719-6.795z"></path></svg><svg viewBox="0 0 512 512" width="512" height="512" id="soc-vk" y="13896"><path d="M440.649 295.361c16.984 16.582 34.909 32.182 50.142 50.436 6.729 8.112 13.099 16.482 17.973 25.896 6.906 13.382.651 28.108-11.348 28.907l-74.59-.034c-19.238 1.596-34.585-6.148-47.489-19.302-10.327-10.519-19.891-21.714-29.821-32.588-4.071-4.444-8.332-8.626-13.422-11.932-10.182-6.609-19.021-4.586-24.84 6.034-5.926 10.802-7.271 22.762-7.853 34.8-.799 17.564-6.108 22.182-23.751 22.986-37.705 1.778-73.489-3.926-106.732-22.947-29.308-16.768-52.034-40.441-71.816-67.24-38.513-52.183-68.008-109.525-94.516-168.473-5.967-13.281-1.603-20.41 13.051-20.663 24.333-.473 48.663-.439 73.025-.034 9.89.145 16.437 5.817 20.256 15.16 13.165 32.371 29.274 63.169 49.494 91.716 5.385 7.6 10.876 15.201 18.694 20.55 8.65 5.923 15.236 3.96 19.305-5.676 2.582-6.11 3.713-12.691 4.295-19.234 1.928-22.513 2.182-44.988-1.199-67.422-2.076-14.001-9.962-23.065-23.933-25.714-7.129-1.351-6.068-4.004-2.616-8.073 5.995-7.018 11.634-11.387 22.875-11.387h84.298c13.271 2.619 16.218 8.581 18.035 21.934l.072 93.637c-.145 5.169 2.582 20.51 11.893 23.931 7.452 2.436 12.364-3.526 16.836-8.251 20.183-21.421 34.588-46.737 47.457-72.951 5.711-11.527 10.622-23.497 15.381-35.458 3.526-8.875 9.059-13.242 19.056-13.049l81.132.072c2.406 0 4.84.035 7.17.434 13.671 2.33 17.418 8.211 13.195 21.561-6.653 20.945-19.598 38.4-32.255 55.935-13.53 18.721-28.001 36.802-41.418 55.634-12.328 17.2-11.349 25.868 3.964 40.805z"></path></svg><svg viewBox="0 0 512 512" width="512" height="512" id="soc-whatsapp" y="14408"><path d="M256.064 0h-.128C114.784 0 0 114.816 0 256c0 56 18.048 107.904 48.736 150.048l-31.904 95.104 98.4-31.456C155.712 496.512 204 512 256.064 512 397.216 512 512 397.152 512 256S397.216 0 256.064 0zm148.96 361.504c-6.176 17.44-30.688 31.904-50.24 36.128-13.376 2.848-30.848 5.12-89.664-19.264-75.232-31.168-123.68-107.616-127.456-112.576-3.616-4.96-30.4-40.48-30.4-77.216s18.656-54.624 26.176-62.304c6.176-6.304 16.384-9.184 26.176-9.184 3.168 0 6.016.16 8.576.288 7.52.32 11.296.768 16.256 12.64 6.176 14.88 21.216 51.616 23.008 55.392 1.824 3.776 3.648 8.896 1.088 13.856-2.4 5.12-4.512 7.392-8.288 11.744-3.776 4.352-7.36 7.68-11.136 12.352-3.456 4.064-7.36 8.416-3.008 15.936 4.352 7.36 19.392 31.904 41.536 51.616 28.576 25.44 51.744 33.568 60.032 37.024 6.176 2.56 13.536 1.952 18.048-2.848 5.728-6.176 12.8-16.416 20-26.496 5.12-7.232 11.584-8.128 18.368-5.568 6.912 2.4 43.488 20.48 51.008 24.224 7.52 3.776 12.48 5.568 14.304 8.736 1.792 3.168 1.792 18.048-4.384 35.52z"></path></svg><svg viewBox="0 0 512 512" width="512" height="512" id="soc-youtube" y="14920"><path d="M490.24 113.92c-13.888-24.704-28.96-29.248-59.648-30.976C399.936 80.864 322.848 80 256.064 80c-66.912 0-144.032.864-174.656 2.912-30.624 1.76-45.728 6.272-59.744 31.008C7.36 138.592 0 181.088 0 255.904v.256c0 74.496 7.36 117.312 21.664 141.728 14.016 24.704 29.088 29.184 59.712 31.264C112.032 430.944 189.152 432 256.064 432c66.784 0 143.872-1.056 174.56-2.816 30.688-2.08 45.76-6.56 59.648-31.264C504.704 373.504 512 330.688 512 256.192v-.256c0-74.848-7.296-117.344-21.76-142.016zM192 352V160l160 96-160 96z"></path></svg><svg viewBox="0 0 490.727 490.727" width="490.727" height="490.727" id="star" y="15432"><path d="M453.443 160.214l-119.7-8.6c-2.5-.2-4.7-1.7-5.6-4.1l-45.6-111c-6.3-15.3-20.5-24.8-37.1-24.8s-30.7 9.5-37.1 24.9l-45.7 111.1c-1 2.3-3.1 3.9-5.6 4.1l-119.5 8.6c-16.2.9-30 11.5-35.3 27.1-5.4 15.8-.9 32.4 11.9 43.3l92.5 76.4c1.9 1.6 2.8 4.2 2.2 6.6l-28.2 115.4c-3.3 12-1 24.4 6.3 34.1 7.5 9.8 19.2 15.7 31.5 15.7 7.6 0 15-2.3 21.1-6.4l101.1-62.9c2.1-1.3 4.8-1.3 6.9 0l102.1 62.7c6.4 4.3 13.8 6.6 21.3 6.6 11.5 0 22.9-5.5 30.3-14.8 7.7-9.6 10.5-22.1 7.7-34.6l-28.3-115.7c-.6-2.5.3-5.1 2.2-6.7l93.9-76.6c12.6-10.8 17.1-27.4 11.8-43.2-5.2-15.6-19.1-26.3-35.1-27.2zm7.7 51.5l-93.7 76.5c-9.2 7.5-13.4 19.9-10.5 31.5l28.3 115.5c1.5 6.8-1.2 11.5-3 13.7-2.8 3.5-7 5.7-11.2 5.7-2.6 0-5.2-.8-8-2.7l-102.5-63c-4.9-3-10.5-4.6-16.3-4.6s-11.5 1.6-16.4 4.7l-101.5 63.1c-6.5 4.3-15.2 2.4-19.8-3.6-1.9-2.5-3.9-6.8-2.1-13.1l28.3-115.8c2.8-11.5-1.3-23.8-10.4-31.3l-92.3-76.3c-7.3-6.3-5.3-14.4-4.5-16.7s4.1-10 13.7-10.5l119.7-8.6c11.8-.9 22-8.2 26.5-19.2l45.7-111.1c3.7-9 12-9.7 14.4-9.7 2.4 0 10.7.7 14.4 9.7l45.7 111.1c4.5 11 14.7 18.3 26.5 19.2l119.9 8.7c9.4.5 12.7 8.2 13.5 10.5.6 2.1 2.6 10.2-4.4 16.3z"></path></svg><svg width="291.055" height="283.666" viewBox="0 0 77.008301 75.053299" id="tools--color" y="15923"><defs id="defs3840"><style id="style3935">.fil0{fill:#c9bfcd}</style></defs><g id="layer1" transform="translate(-33.311 -126.426)"><g id="g3956" transform="matrix(.01 0 0 .01 32.638 125.738)" clip-rule="evenodd" fill-rule="evenodd" image-rendering="optimizeQuality" shape-rendering="geometricPrecision" text-rendering="geometricPrecision"><g id="Слой_x0020_1"><path id="path3940" d="M67.37 68.8h6217.69v3430.65l-901.82 2.61-6.61-183-564.4-579.87-3.43-944.19s-8.13-120.19-133.26-116.32c-125.13 3.87-130.09 114.65-130.09 114.65l2.2 863.2-580.99 4.41-3.28-857.67s-10.61-129.4-131.34-127.75c-120.73 1.65-131.11 131.04-131.11 131.04l-2.15 935.97-564.45 567.77-2.24 192.86-2372.53 5.52-9.73 2777.8H67.37zm6217.69 3956.12v636.23l-862.21-884.94 615.16-2.2zm0 978.6v53.14l-577.8-6.06L4682 4014.31l626.18-4.41zm0 315.08v579.88h-775.08V5318.6zm0 849.92v117.96h-767.38v-117.96zm-1032.91 117.96h-299.38l-1.06-141.54 300.97.55zm-557.74 0h-875.34v-142.03h875.34zm-1136.17 0H3258.5l-.13-136.02 300.97-3.32zm-560.73 0H1006.5v-129.01h1991.01zm251.92-983.33h1980.53l-4.41 601.93-275.61-.55V5735.3s-4.54-116.14-126.9-117.25c-122.36-1.11-136.8 115.04-136.8 115.04l-1.43 176.96-296.01-2.21-1.1-198.99c-.06-11.57-18.75-93.71-125.68-94.81-106.93-1.1-136.57 77.21-136.77 95.35l-2.13 193.49-291.24 2.26-3.42-158.79s-.81-133.41-133.09-132.31c-132.28 1.1-140.62 134.55-140.62 134.55l1.72 156.5-304.28 2.2zm-2242.89 5.45h1988.8v593.11h-1988.8zm2393.24-1816.86l1702.16-6.62 13.23 310.89-1715.39-4.41zm202.85-275.61l291.04-293.25h732.02l291.04 297.66zm98.16 811.42l638.31-4.41 1034.09 1023.05h-646.03zm-1238.08-255.8l674.69 2.2 2.2 262.38 211.67-2.2L4356.7 5046.17l-612.96 4.41zm-985.56-2.21h612.96l1274.41 1281.03-604.13 4.41zm-469.63 11.03h92.61l1283.23 1278.82-608.55 4.41-771.7-762.89zm8.82 899.58v379.24l357.19 4.41z" class="fil0" fill="#c9bfcd"></path><path id="path3942" d="M748.95 6286.48l-4.5 1285.44 7023.75 2.21V5135.55L6405.43 3770.74l610.75-2.21 532.43 530.32c11.74 11.69 112.41 67.4 182.02 3.46 21.86-20.07 33.04-43.23 37.57-66.09v-53.65c-4.97-27.48-16.17-49.23-23.34-56.61l-353.85-364.04 280.02 2.2s89.08-17.92 97.17-119.45v-29.59c-8.38-103.66-105.99-119.95-105.99-119.95l-1377.15 3.99v526.36l1022.09 1038.06h-630.59l-391.5-401.82v342.36l51.92 52.81-51.92-.54v261.93h1221.66v579.88H6285.06v270.04h1211.72v1154.28H5516.81v-1036h-265.53l-3.88 1031.13-1988.79 4.41-.98-1035.54h-260.99V7312.5H1005.63V6286.48zm3944.59 0v469.5H3818.2v-469.5h-260.83c-1.43 179.91-3.82 479.05-4.58 559.23-1.11 116.86 69.62 163.22 104.9 163.22s1040.7 4.42 1164.17 6.62c123.47 2.2 134.49-132.3 134.49-132.3l-4.45-596.77z" class="fil0" fill="#c9bfcd"></path></g></g></g></svg><svg width="96" height="95.428" viewBox="0 0 96 95.428" id="unlike" y="16207"><path data-name="Path 84" d="M2.6 44.201a10.194 10.194 0 0 0 7.6 17H30a65.927 65.927 0 0 0-2.8 17.227v3.4a13.617 13.617 0 0 0 13.6 13.6h3.4a3.4 3.4 0 0 0 3.3-2.575l1.852-7.41c2.6-10.377 10.835-21.826 19.362-23.907a10.214 10.214 0 0 0 9.488 6.465H92.6a3.4 3.4 0 0 0 3.4-3.4v-61.2a3.4 3.4 0 0 0-3.4-3.4H78.2a10.211 10.211 0 0 0-9.207 5.814L57.311 1.921A37.318 37.318 0 0 0 45.483.001H17a10.2 10.2 0 0 0-9.484 13.958 10.194 10.194 0 0 0-4.912 16.642 10.18 10.18 0 0 0 0 13.6zm72.2-34a3.4 3.4 0 0 1 3.4-3.4h11v54.4h-11a3.4 3.4 0 0 1-3.4-3.4zM17 40.801h-6.8a3.4 3.4 0 1 1 0-6.8H17a3.4 3.4 0 0 0 0-6.8h-6.8a3.4 3.4 0 1 1 0-6.8H17a3.4 3.4 0 1 0 0-6.8 3.4 3.4 0 0 1 0-6.8h28.483a30.534 30.534 0 0 1 9.679 1.571L68 12.651v42.072c-5.333 1.013-10.554 4.391-15.266 9.919a49.611 49.611 0 0 0-9.98 19.151l-1.208 4.835H40.8a6.808 6.808 0 0 1-6.8-6.8v-3.4c0-4.565 1.428-13.321 3.255-17.229H44.2a3.4 3.4 0 0 0 0-6.8h-34a3.4 3.4 0 1 1 0-6.8H17a3.4 3.4 0 0 0 0-6.8z"></path></svg><svg viewBox="0 0 512.001 512.001" width="512.001" height="512.001" id="upload" y="16303"><path d="M405.967 195.112c-1.069-78.061-64.902-141.239-143.213-141.239-34.835 0-68.396 12.672-94.498 35.682-23.296 20.535-39.232 47.977-45.543 78.106-.461-.005-.918-.009-1.374-.009C54.434 167.652 0 222.085 0 288.991S54.434 410.33 121.34 410.33h84.743c6.029 0 10.919-4.888 10.919-10.919 0-6.031-4.89-10.919-10.919-10.919H121.34c-54.866 0-99.502-44.636-99.502-99.501s44.636-99.501 99.502-99.501c2.923 0 6.013.157 9.448.48 5.822.545 11.049-3.596 11.842-9.396 3.932-28.82 18.161-55.327 40.067-74.638 22.111-19.492 50.542-30.226 80.056-30.226 66.935 0 121.389 54.455 121.389 121.389 0 2.41-.179 4.894-.368 7.524l-.081 1.118a10.915 10.915 0 0 0 3.287 8.604 10.914 10.914 0 0 0 8.697 3.03 87.102 87.102 0 0 1 8.708-.44c47.297 0 85.778 38.48 85.778 85.778 0 47.297-38.48 85.777-85.778 85.777h-89.111c-6.029 0-10.919 4.888-10.919 10.919 0 6.031 4.89 10.919 10.919 10.919h89.111c59.339 0 107.616-48.275 107.616-107.615-.001-58.807-47.421-106.752-106.034-107.601z"></path><path d="M262.755 105.192c-45.658 0-84.742 34.121-90.914 79.367-.815 5.975 3.369 11.48 9.343 12.295.501.068.998.102 1.489.102 5.375 0 10.059-3.97 10.804-9.444 4.703-34.48 34.486-60.482 69.277-60.482 6.031 0 10.919-4.888 10.919-10.919.001-6.03-4.888-10.919-10.918-10.919zm49.655 214.86l-39.718-35.48c-6.847-6.12-17.177-6.119-24.027-.001l-39.718 35.482c-4.498 4.017-4.886 10.92-.869 15.418 4.017 4.496 10.919 4.887 15.418.869l26.264-23.462v134.331c0 6.031 4.888 10.919 10.919 10.919 6.03 0 10.919-4.888 10.919-10.919V312.876l26.265 23.463a10.873 10.873 0 0 0 7.27 2.776 10.89 10.89 0 0 0 8.148-3.645c4.015-4.498 3.626-11.4-.871-15.418z"></path></svg><svg viewBox="0 0 350 350" width="350" height="350" id="user" y="16816"><path d="M175 171.173c38.914 0 70.463-38.318 70.463-85.586C245.463 38.318 235.105 0 175 0s-70.465 38.318-70.465 85.587c0 47.268 31.549 85.586 70.465 85.586zM41.909 301.853c-.012-2.882-.024-.812 0 0zm266.176 2.251c.038-.789.013-5.474 0 0z"></path><path d="M307.935 298.397c-1.305-82.342-12.059-105.805-94.352-120.657 0 0-11.584 14.761-38.584 14.761s-38.586-14.761-38.586-14.761C55.018 192.43 43.61 215.545 42.11 295.722c-.123 6.547-.18 6.891-.202 6.131.005 1.424.011 4.058.011 8.651 0 0 19.592 39.496 133.08 39.496 113.486 0 133.08-39.496 133.08-39.496 0-2.951.002-5.003.005-6.399-.022.47-.066-.441-.149-5.708z"></path></svg><svg viewBox="0 0 77.777 74.838" width="77.777" height="74.838" id="worker-color" y="17166"><g clip-rule="evenodd" fill-rule="evenodd" image-rendering="optimizeQuality" shape-rendering="geometricPrecision" text-rendering="geometricPrecision"><path d="M0 0h61.894v21.845c-1.601 1.291-1.866 2.717-1.866 2.717l1.866 9.396V60.33l-.312 1.462h-5.71c.125-5.688-.468-6.404-1.339-8.161-.926-1.869-3.042-3.527-4.928-4.056-1.885-.53-5.804-.463-5.275-.53.53-.065 3.018-3.497 3.415-6.936.397-3.44.26-12.254.26-12.254l4.172-.017-.041-3.017-4.035-.033s-.066-2.514-1.72-5.16c-1.654-2.646-5.561-4.814-5.561-4.814l-.045-1.155-10.956.012-.008 1.26s-2.95 1.385-4.802 3.965-2.507 5.958-2.507 5.958l-3.836-.033v3.1l3.892.009s.01 7.995.176 12.063c.166 4.068 4.068 7.185 4.068 7.185s-1.819-.207-5.39.273c-3.573.48-6.59 5.336-6.601 8.343l-.016 3.998H0zm29.72 39.774l2.783-.031s.242 2.848 2.74 2.826c2.496-.022 2.678-2.831 2.678-2.831l2.91-.013c-.551 7.327-10.446 7.243-11.112.05zm22.65 22.02h-4.466l-.053-9.503s4.422.88 4.535 5.083c.02 1.581.005 2.958-.016 4.42zm-7.793 0H25.824l-.016-9.522 3.898.008c.108 3.878 1.292 7.784 5.776 7.713 4.402-.07 5.546-4.481 5.374-7.723h3.737zm-22.078 0h-4.464a160.286 160.286 0 0 1-.018-4.504c.113-4.202 4.536-5.083 4.536-5.083zm2.883-31.863l19.927.025c.06 5.077.376 8.871-.438 12.473-.797 3.53-3.71 5.888-7.45 6.577.033 1.77-.07 5.65-.103 6.048-.033.397-.305 1.798-1.925 1.798s-2.14-1.231-2.14-1.86-.031-5.953-.031-5.953-6.137-1.033-7.493-6.457c-.601-3.708-.347-12.65-.347-12.65zm.265-3.006l19.19-.033c-.32-3.184-2.47-5.321-4.055-6.16l.033 2.282-3.266.002-.062-3.83-4.49.034v3.796l-3.232.006-.013-2.29c-2.21.88-3.733 3.93-4.105 6.193z" class="cgfil0" fill="#c9bfcd"></path><path d="M14.767 74.829l.05-13.036h3.242l.03 2.13 4.42-.012.012-2.118h3.326l.017 9.383h18.719l.016-9.383h3.328l.013 2.202 4.42.011c.01-.78.022-1.506.032-2.213h3.502a93.06 93.06 0 0 1-.032 1.097c-.231 6.747-.057 11.948-.057 11.948zm33.266-7.682h4.432v4.013h-4.432zm-29.965-.022H22.5v4.013h-4.432zm43.514-34.898l2.272 11.436.066 7.21-3.936 18.488s.132 5.143 8.632 5.358c8.5.215 9.16-5.457 9.16-5.457l-3.869-18.587-.099-7.11 3.803-19.084s-1.092-4.632-8.533-4.731c-3.996.032-6.243 1.177-7.496 2.335zm4.24 19.996l5.982-.01 3.345 16.939c-1.795 4.15-11.464 3.078-12.579.262zm.24-8.078h5.537v5.228h-5.537zm-.414-2.647l6.265.034 2.382-13.408s-1.86 1.062-5.464 1.062c-3.605 0-5.431-1.095-5.431-1.095zm-3.205-17.195c.134.279.873 2.678 6.317 2.678s6.785-2.369 6.678-2.616c-.674-1.556-3.901-2.514-6.627-2.496-2.652.017-5.605.97-6.368 2.434z" class="cgfil0" fill="#c9bfcd"></path></g></svg><svg width="612.014" height="612.014" viewBox="0 0 612.014 612.014" id="zoom-plus-sign" y="17241"><path d="M306.21 153.117h-76.553v76.552h-76.552v76.553h76.552v76.552h76.553v-76.552h76.552v-76.553H306.21v-76.552zm292.011 378.476l-110.58-110.542c30.314-43.443 48.228-96.149 48.228-153.105C535.869 119.97 415.911.012 267.935.012S0 119.97 0 267.946 119.958 535.88 267.934 535.88c56.956 0 109.662-17.913 153.105-48.228l110.542 110.542c18.411 18.41 48.229 18.41 66.64 0 18.411-18.411 18.372-48.19 0-66.601zm-330.287-72.266c-105.681 0-191.381-85.7-191.381-191.381S162.254 76.565 267.934 76.565c105.681 0 191.381 85.701 191.381 191.381 0 105.681-85.7 191.381-191.381 191.381z"></path></svg></svg>